<?xml version="1.0" encoding="utf-8"?>
<!-- Generator: Adobe Illustrator 22.1.0, SVG Export Plug-In . SVG Version: 6.00 Build 0)  -->
<svg version="1.1" id="Layer_1" xmlns="http://www.w3.org/2000/svg" xmlns:xlink="http://www.w3.org/1999/xlink" x="0px" y="0px"
	 viewBox="0 0 309.8 311.1" style="enable-background:new 0 0 309.8 311.1;" xml:space="preserve">
<style type="text/css">
	.st0{fill:url(#SVGID_1_);}
	.st1{fill:url(#SVGID_2_);}
</style>
<g>
	<linearGradient id="SVGID_1_" gradientUnits="userSpaceOnUse" x1="134.7837" y1="153.0775" x2="303.5347" y2="153.0775">
		<stop  offset="0" style="stop-color:#FDFDFD"/>
		<stop  offset="0" style="stop-color:#FF3000"/>
		<stop  offset="1" style="stop-color:#E7C700"/>
		<stop  offset="1" style="stop-color:#000000"/>
	</linearGradient>
	<path class="st0" d="M298.8,142.1L161.4,4.7c-6.3-6.3-16.2-6.3-21.9,0c-6.3,6.3-6.3,16.2,0,21.9l126.4,126.4L139.5,279.5
		c-6.3,6.3-6.3,16.2,0,21.9c3.1,3.1,7.3,4.7,11,4.7c3.7,0,7.8-1.6,11-4.7L298.8,164C305.1,157.8,305.1,148.4,298.8,142.1z"/>
	<linearGradient id="SVGID_2_" gradientUnits="userSpaceOnUse" x1="-2.3366" y1="153.2894" x2="367.767" y2="148.9132">
		<stop  offset="0" style="stop-color:#FDFDFD"/>
		<stop  offset="0" style="stop-color:#FF3000"/>
		<stop  offset="1" style="stop-color:#E7C700"/>
		<stop  offset="1" style="stop-color:#000000"/>
	</linearGradient>
	<path class="st1" d="M26.6,4.7c-6.3-6.3-16.2-6.3-21.9,0c-6.3,6.3-6.3,16.2,0,21.9l126.4,126.4L4.7,279.5c-6.3,6.3-6.3,16.2,0,21.9
		c3.1,3.1,7.3,4.7,11,4.7c4.2,0,7.8-1.6,11-4.7L164,164c3.1-3.1,4.7-6.8,4.7-11c0-4.2-1.6-8.4-4.7-11L26.6,4.7z"/>
</g>
</svg>
