<?xml version="1.0" encoding="utf-8"?>
<!-- Generator: Adobe Illustrator 22.1.0, SVG Export Plug-In . SVG Version: 6.00 Build 0)  -->
<svg version="1.1" id="Слой_1" xmlns="http://www.w3.org/2000/svg" xmlns:xlink="http://www.w3.org/1999/xlink" x="0px" y="0px"
	 viewBox="0 0 496 496" style="enable-background:new 0 0 496 496;" xml:space="preserve">
<style type="text/css">
	.st0{fill:#FDD835;}
	.st1{fill:#FF8200;}
	.st2{fill:#FF3617;}
</style>
<path class="st0" d="M300.4,491.5c-7.1-5.2-8.7-15.2-3.4-22.3l159.4-217.3L297,34.5c-5.2-7.1-3.7-17.1,3.4-22.3
	c7.1-5.2,17.1-3.7,22.4,3.4L496,251.8L322.8,488C317.6,495.1,307.6,496.7,300.4,491.5z"/>
<path class="st1" d="M156.7,491.5c-7.1-5.2-8.7-15.2-3.4-22.3l159.4-217.3L153.2,34.5c-5.2-7.1-3.7-17.1,3.4-22.3
	c7.1-5.2,17.1-3.7,22.4,3.4l173.2,236.2L179,488C173.8,495.1,163.8,496.7,156.7,491.5z"/>
<path class="st2" d="M24.7,487.6c-7.1-5.2-8.7-15.2-3.4-22.3L180.6,248L21.2,30.7c-5.2-7.1-3.7-17.1,3.4-22.3
	c7.1-5.2,17.1-3.7,22.4,3.4L220.2,248L47,484.2C41.8,491.3,31.8,492.9,24.7,487.6z"/>
</svg>
