<?xml version="1.0" encoding="utf-8"?>
<!-- Generator: Adobe Illustrator 23.0.1, SVG Export Plug-In . SVG Version: 6.00 Build 0)  -->
<svg version="1.1" id="Слой_1" xmlns="http://www.w3.org/2000/svg" xmlns:xlink="http://www.w3.org/1999/xlink" x="0px" y="0px"
	 viewBox="0 0 782 122" style="enable-background:new 0 0 782 122;" xml:space="preserve">
<style type="text/css">
	.st0{fill:#040406;}
	.st1{fill:url(#SVGID_1_);}
</style>
<g>
	<g>
		<g>
			<path class="st0" d="M39.22,43.21C17.56,43.21,0,60.77,0,82.43c0,21.66,17.56,39.22,39.22,39.22c21.66,0,39.22-17.56,39.22-39.22
				C78.44,60.77,60.88,43.21,39.22,43.21z M6.09,73.57c0,0,14.71-38.09,51.85-18.48C57.94,55.09,27.39,43.21,6.09,73.57z
				 M30.41,113.35c0,0,19.61,5.28,35.07-11.69C65.48,101.66,53.04,124.48,30.41,113.35z"/>
			<path class="st0" d="M25.51,42.46c0,0,16.12-4.24,27.34,2.07c0,0,0.28-8.49-6.22-8.58c-6.51-0.09-15.08,0-15.08,0
				S25.32,36.33,25.51,42.46z"/>
			<path class="st0" d="M37.39,34.73h3.68c0,0,3.49-11.5,10.89-12.56c4-0.57,7.57-0.13,7.57-0.13s13.56,1.12,16.89-0.99
				c3.83-2.04,5.85-7.07,5.85-7.07s0.94-3.21-1.32-3.39c-2.26-0.19-2.92,3.21-2.92,3.21s-1.48,4.78-6.13,5.19
				c-5.01,0.44-15.21-1.1-20.08-0.47C46.43,19.21,38.64,25.61,37.39,34.73z"/>
			<path class="st0" d="M76.86,14.87c0,0,1.13-6.35,4.78-5.09c3.65,1.26,0,7.92,0,7.92l4.9,11.75l-1.19-13.58l7.92,2.33l-5.66-6.1
				l12.57-5.59L86.22,7.95l2.29-8.61l-6.06,5.91L76.48-8.2l1.19,15.08l-7.98-2.51l6.6,6.21L64.04,16L76.86,14.87z"/>
		</g>
	</g>
	<g>
		<linearGradient id="SVGID_1_" gradientUnits="userSpaceOnUse" x1="40.374" y1="62.9083" x2="782.0029" y2="62.9083">
			<stop  offset="0" style="stop-color:#040406"/>
			<stop  offset="1" style="stop-color:#A3A096"/>
		</linearGradient>
		<path class="st1" d="M109.08,3.82c-0.82,0.63-1.78,1.13-2.85,1.47L91.27,12.1l8.43,10.56l-12.09-3.94l0.8,18.27l-7.93-15.81
			c0,0,0.12-0.61-0.66-0.5c-0.86,1.04-0.35,0.54-1.63,1.22c-3.33,2.11-11.25,2.16-15.09,1.78c-2.29-0.22-4.53-0.57-9.09-0.42
			c-2.55,0.52-3.56,1.02-4.64,1.64c-3.27,2.52-5.11,6.63-5.88,8.77h0.68c1.73,0,4.22,0.59,5.86,0.61c6.51,0.09,4.88,9.83,4.88,9.83
			c-0.02-0.01-0.1,0.4-0.12,0.39c0.07,0.03,3.72,1.35,3.72,1.35c14.95,5.52,23.35,19.71,23.35,36.58c0,17.35-12.69,34.4-28.31,39.57
			L782,121.78V3.82H109.08z"/>
	</g>
</g>
</svg>
