<?xml version="1.0" encoding="iso-8859-1"?>
<!-- Generator: Adobe Illustrator 19.0.0, SVG Export Plug-In . SVG Version: 6.00 Build 0)  -->
<svg version="1.1" id="Capa_1" xmlns="http://www.w3.org/2000/svg" xmlns:xlink="http://www.w3.org/1999/xlink" x="0px" y="0px"
	 viewBox="0 0 512.015 512.015" style="enable-background:new 0 0 512.015 512.015;" xml:space="preserve">
<path style="fill:#ffffff;" d="M509.739,89.437c-2.022-2.586-5.122-4.097-8.405-4.096H96c-5.891-0.001-10.668,4.773-10.669,10.664
	c0,0.717,0.072,1.433,0.216,2.136l42.667,213.333c1.079,5.531,6.274,9.269,11.861,8.533l320-42.667c4.339-0.58,7.883-3.752,8.939-8
	L511.68,98.674C512.505,95.461,511.787,92.046,509.739,89.437z"/>
<g>
	<circle style="fill:#455A64;" cx="394.667" cy="437.341" r="53.333"/>
	<circle style="fill:#455A64;" cx="181.333" cy="437.341" r="53.333"/>
	<path style="fill:#455A64;" d="M191.125,362.674h246.208c5.891,0,10.667-4.776,10.667-10.667c0-5.891-4.776-10.667-10.667-10.667
		H191.125c-25.408-0.053-47.272-17.976-52.309-42.88L85.12,29.874c-1.014-4.967-5.384-8.534-10.453-8.533h-64
		C4.776,21.341,0,26.116,0,32.007s4.776,10.667,10.667,10.667H65.92l51.989,259.968
		C124.954,337.505,155.557,362.598,191.125,362.674z"/>
</g>
<path d="M394.667,490.674c-29.455,0-53.333-23.878-53.333-53.333s23.878-53.333,53.333-53.333S448,407.886,448,437.341
	S424.122,490.674,394.667,490.674z M394.667,405.341c-17.673,0-32,14.327-32,32s14.327,32,32,32s32-14.327,32-32
	S412.34,405.341,394.667,405.341z"/>
<path d="M181.333,490.674c-29.455,0-53.333-23.878-53.333-53.333s23.878-53.333,53.333-53.333c29.455,0,53.333,23.878,53.333,53.333
	S210.789,490.674,181.333,490.674z M181.333,405.341c-17.673,0-32,14.327-32,32s14.327,32,32,32s32-14.327,32-32
	S199.006,405.341,181.333,405.341z"/>
<path d="M437.333,362.674H191.125c-35.561-0.074-66.163-25.156-73.216-60.011L65.92,42.674H10.667C4.776,42.674,0,37.898,0,32.007
	s4.776-10.667,10.667-10.667h64c5.07-0.001,9.439,3.566,10.453,8.533l53.717,268.587c5.035,24.896,26.888,42.817,52.288,42.88
	h246.208c5.891,0,10.667,4.776,10.667,10.667C448,357.898,443.224,362.674,437.333,362.674z"/>
<path d="M138.667,320.007c-5.891,0.383-10.977-4.082-11.36-9.973c-0.383-5.891,4.082-10.977,9.973-11.36l312.853-41.621
	l37.525-150.379H96c-5.891,0-10.667-4.776-10.667-10.667c0-5.891,4.776-10.667,10.667-10.667h405.333
	c5.891,0.002,10.665,4.779,10.664,10.67c0,0.869-0.107,1.735-0.317,2.578l-42.667,170.667c-1.056,4.248-4.6,7.42-8.939,8
	l-320,42.667C139.608,319.981,139.137,320.009,138.667,320.007z"/>
<g>
</g>
<g>
</g>
<g>
</g>
<g>
</g>
<g>
</g>
<g>
</g>
<g>
</g>
<g>
</g>
<g>
</g>
<g>
</g>
<g>
</g>
<g>
</g>
<g>
</g>
<g>
</g>
<g>
</g>
</svg>
