<?xml version="1.0" encoding="utf-8"?>
<!-- Generator: Adobe Illustrator 23.0.1, SVG Export Plug-In . SVG Version: 6.00 Build 0)  -->
<svg version="1.1" id="Слой_1" xmlns="http://www.w3.org/2000/svg" xmlns:xlink="http://www.w3.org/1999/xlink" x="0px" y="0px"
	 viewBox="0 0 782 122" style="enable-background:new 0 0 782 122;" xml:space="preserve">
<style type="text/css">
	.st0{fill:#1E6520;}
	.st1{fill:#FFFFFF;}
	.st2{fill:url(#SVGID_1_);}
	.st3{fill:#040406;}
	.st4{fill:url(#SVGID_2_);}
</style>
<g>
	<g>
		<path class="st0" d="M66.92,44.89c0,0-7.53,1.86-9.07-2.79c-1.54-4.65-3.67-10.69-6.56-12.55c-2.89-1.86-7.72-4.41-12.93-1.63
			C33.15,30.71,26.2,44.19,26.2,44.19l5.4,1.06c0,0-1.54,4.28,0,6.14c1.54,1.86,3.47,2.32,3.47,2.32l-0.77,5.58h2.51l0.19,3.25
			l1.54,1.16l0.19,1.39l2.51,1.39c0,0,1.16,1.16,3.47,0c0,0-0.58,2.79-6.18,1.63c-8.49,1.86-9.84,13.24-9.84,13.24
			s-7.91,1.16-8.11,10.46c0,0-1.16-3.49-4.44-4.41c-3.28-0.93-8.3-8.6-8.49-10.22s1.16-3.49,1.16-3.49l1.35-1.39l1.74-0.46l1.93-0.7
			l1.54-1.63v-1.86v-2.09l-1.16-0.93c0,0-1.16-1.63-1.93-1.86c-0.77-0.23-2.7-0.93-2.7-0.93l-1.95,0.23l-2.49,3.25l-1.93,2.09
			l-2.12,2.32c0,0-2.51,2.79,0,8.36c2.51,5.58,5.6,20.91,5.6,20.91s2.12,11.15,10.42,16.73c0,0,3.47-0.46,4.82-3.02
			c0,0,18.53-4.88,21.81-11.85c0,0,6.18,6.51,9.26,4.18c0,0-0.96,10.46,2.51,14.87h30.11c0,0-1.16-6.13,0.97-16.81
			c2.12-10.69,5.21-23.93,5.21-23.93s2.89-21.06,0.38-25.94c0,0,11-9.29,12.54-19.98c0,0,5.4-6.74,2.51-10.69l-2.51-1.63
			c0,0-2.51-6.51-5.98-8.83C95.29,9.8,86.61,1.67,76.57,2.83S62.48,8.64,62.48,8.64s-5.02,9.29,1.74,13.48
			c6.75,4.18,5.79-2.79,5.79-2.79l3.86-0.93c0,0,0.96-7.2,3.67-6.97c2.7,0.23,9.84,13.48,9.84,13.48s-4.25,3.02-4.44,5.11
			C82.94,30.02,67.12,35.13,66.92,44.89z"/>
		<path class="st1" d="M6.62,76.8c1.12-3.05-1.27-5.99-3.8-4.76c-0.67,0.32-1.17,0.94-1.42,1.64c-1.12,3.05,1.27,5.99,3.8,4.76
			C5.87,78.12,6.37,77.5,6.62,76.8z"/>
		<path class="st1" d="M78.22,8.95c1.12-3.05-1.27-5.99-3.8-4.76C73.75,4.52,73.25,5.14,73,5.83c-1.12,3.05,1.27,5.99,3.8,4.76
			C77.47,10.27,77.97,9.65,78.22,8.95z"/>
		<path class="st1" d="M102.73,27.31c1.12-3.05-1.27-5.99-3.8-4.76c-0.67,0.32-1.17,0.94-1.42,1.64c-1.12,3.05,1.27,5.99,3.8,4.76
			C101.97,28.63,102.47,28.01,102.73,27.31z"/>
		<path class="st1" d="M84.01,47.76c1.12-3.05-1.27-5.99-3.8-4.76c-0.67,0.32-1.17,0.94-1.42,1.64c-1.12,3.05,1.27,5.99,3.8,4.76
			C83.26,49.07,83.76,48.45,84.01,47.76z"/>
		<path class="st1" d="M42.13,86.79c1.12-3.05-1.27-5.99-3.8-4.76c-0.67,0.32-1.17,0.94-1.42,1.64c-1.12,3.05,1.27,5.99,3.8,4.76
			C41.38,88.11,41.88,87.49,42.13,86.79z"/>
		<path class="st1" d="M19.36,109.33c1.12-3.05-1.27-5.99-3.8-4.76c-0.67,0.32-1.17,0.94-1.42,1.64c-1.12,3.05,1.27,5.99,3.8,4.76
			C18.61,110.65,19.11,110.03,19.36,109.33z"/>
	</g>
	<g>
		<linearGradient id="SVGID_1_" gradientUnits="userSpaceOnUse" x1="87.8074" y1="61" x2="782.007" y2="61">
			<stop  offset="0" style="stop-color:#5AB229"/>
			<stop  offset="1" style="stop-color:#C3DB1B"/>
		</linearGradient>
		<path class="st2" d="M87.81,1.9c19.47,7.27,22.47,19.06,22.47,19.06l2.51,1.63c2.89,3.95-2.51,10.69-2.51,10.69
			c-1.54,10.69-12.54,19.98-12.54,19.98c2.51,4.88-0.38,25.94-0.38,25.94s-3.09,13.24-5.21,23.93c-2.12,10.69-0.97,16.81-0.97,16.81
			l690.83,0.16l0.01-118.2H87.81z"/>
	</g>
</g>
</svg>
