<?xml version="1.0" encoding="utf-8"?>
<!-- Generator: Adobe Illustrator 23.0.1, SVG Export Plug-In . SVG Version: 6.00 Build 0)  -->
<svg version="1.1" id="Слой_1" xmlns="http://www.w3.org/2000/svg" xmlns:xlink="http://www.w3.org/1999/xlink" x="0px" y="0px"
	 viewBox="0 0 782 122" style="enable-background:new 0 0 782 122;" xml:space="preserve">
<style type="text/css">
	.st0{fill:#2854A1;}
	.st1{fill:url(#SVGID_1_);}
	.st2{fill:url(#SVGID_2_);}
	.st3{fill:url(#SVGID_3_);}
	.st4{fill:#892890;}
	.st5{fill:#E3160C;}
	.st6{fill:#FE120C;}
	.st7{fill:url(#SVGID_4_);}
	.st8{fill:#1E6520;}
	.st9{fill:#FFFFFF;}
	.st10{fill:url(#SVGID_5_);}
	.st11{fill:url(#SVGID_6_);}
	.st12{fill:#FF9110;}
	.st13{opacity:0.26;fill:url(#SVGID_7_);}
	.st14{opacity:0.26;fill:url(#SVGID_8_);}
	.st15{fill:#040406;}
	.st16{fill:url(#SVGID_9_);}
</style>
<g>
	<g>
		<linearGradient id="SVGID_1_" gradientUnits="userSpaceOnUse" x1="26.4192" y1="61" x2="781.9979" y2="61">
			<stop  offset="0" style="stop-color:#FABF15"/>
			<stop  offset="0" style="stop-color:#F9C117"/>
			<stop  offset="1" style="stop-color:#E8F55B"/>
		</linearGradient>
		<path class="st1" d="M107.94,1.35c1.59,3.84,3.52,8.41,4.41,13.8c1.31,1.8,2.41,3.77,3.26,5.87c2.75,5.59,4.39,11.83,4.69,18.36
			c0.27,6.11-1.49,12.73-4.44,18.63c-0.06,0.16-0.11,0.31-0.16,0.46c0.32,1.88,0.54,3.8,0.62,5.75c0.3,6.63-1.79,13.84-5.21,20.11
			c-0.51,1.01-1.05,1.91-1.6,2.7c-0.35,0.54-0.7,1.08-1.07,1.6c-1.78,7.94-6.15,15.79-11.49,21.13c-0.75,0.75-1.54,1.46-2.35,2.14
			c0.23,0,0.45,0.01,0.68,0.01c-3.65,4.49-8.43,8.21-12.76,8.57c0.04-0.12,0.07-0.23-0.03,0c-0.08,0.29-0.02,0.14,0.03,0L782,120.41
			V1.35H107.94z"/>
	</g>
	<g>
		<g id="Енергия_что_придает_крылья_12_">
			<g>
				<g>
					<path class="st12" d="M56.99,98.29c-0.04-1.41-1.01-2.57-1.01-2.57C26.56,69.62,13.91,47.61,11.12,1.56
						C-4.64,33.99,19.3,69.01,37.77,88.8l-0.01,0C16.14,71.72,9.75,56.08,1.19,28.25C-6.35,66.06,23.52,87.69,45.37,97.7
						c-16.73-2.4-29.52-12.76-42.1-32.74c0.4,15.11,6.72,24.17,15.19,29.5v0h0.01c5.68,3.58,12.3,5.48,18.81,6.34
						c0,0.02,0.01,0.05,0.01,0.08c0-0.03,0-0.05,0-0.08c1.4,0.18,2.8,0.33,4.17,0.43c0.02,0.05,0.03,0.09,0.05,0.14
						c0.02-0.05,0.05-0.08,0.08-0.13c2.84,0.19,5.61,0.23,8.19,0.14c-12.18,3.52-23.8,0.8-37.02-7.81
						c7.48,22.79,26.44,18.5,41.35,10.32c-8.1,6.27-17.2,9.03-28.21,9.1c8.28,10.16,17.71,7.28,26.22-0.31
						c-2.02,2.69-4.35,5.2-7.01,7.59c4.33,0.97,7.87-1.5,10.48-5.38c0.4,2.58,0.96,4.66,1.61,4.94
						C56.08,110.47,57.03,99.7,56.99,98.29z"/>
					<linearGradient id="SVGID_2_" gradientUnits="userSpaceOnUse" x1="68.8289" y1="109.9136" x2="69.2223" y2="109.9136">
						<stop  offset="0" style="stop-color:#FFCF12"/>
						<stop  offset="1" style="stop-color:#FBF484"/>
					</linearGradient>
					<path style="opacity:0.26;fill:url(#SVGID_2_);" d="M69.22,109.9h-0.39C69.03,109.96,69.22,109.9,69.22,109.9z"/>
					<path class="st12" d="M114.73,28.25c-8.56,27.83-14.95,43.47-36.57,60.55l0,0c18.47-19.79,42.41-54.81,26.64-87.24
						c-2.78,46.05-15.12,68.05-44.55,94.16c0,0-0.97,1.16-1.01,2.57c-0.04,1.41,0.6,12.18-0.53,21.54c0.66-0.28,1.21-2.35,1.61-4.94
						c1.14,1.7,2.47,3.1,3.95,4.08c0,0,0,0-0.01,0c0.09,0.13,0.05,0.23,0.11,0.36c0-0.11,0.05-0.16,0.1-0.23
						c1.86,1.18,3.98,1.7,6.33,1.17c-2.67-2.39-4.99-4.89-7.01-7.59c8.52,7.59,17.95,10.47,26.22,0.31
						c-11.01-0.07-20.1-2.83-28.21-9.1c14.91,8.18,33.87,12.47,41.35-10.32c-13.22,8.61-24.84,11.33-37.02,7.81
						c18.33,0.65,45.67-4.4,46.51-36.42C100.07,84.94,87.29,95.3,70.55,97.7C92.4,87.69,122.27,66.06,114.73,28.25z"/>
				</g>
			</g>
		</g>
	</g>
	<g>
		<linearGradient id="SVGID_3_" gradientUnits="userSpaceOnUse" x1="61.3498" y1="109.9136" x2="61.3979" y2="109.9136">
			<stop  offset="0" style="stop-color:#FFCF12"/>
			<stop  offset="1" style="stop-color:#FBF484"/>
		</linearGradient>
		<path style="opacity:0.26;fill:url(#SVGID_3_);" d="M61.39,109.9h-0.04c0.01,0.01,0.04,0.02,0.05,0.02
			C61.4,109.92,61.4,109.91,61.39,109.9z"/>
	</g>
</g>
</svg>
