<svg width="30" height="36" viewBox="0 0 30 36" fill="none" xmlns="http://www.w3.org/2000/svg">
<mask id="path-1-inside-1" fill="white">
<path fill-rule="evenodd" clip-rule="evenodd" d="M7 0.824219C3.13401 0.824219 0 3.95823 0 7.82422V28.6004C0 32.4664 3.13401 35.6004 7 35.6004H13.3594V24.6787H9.69727V18.6523H13.3594V13.991C13.4961 12.1486 14.6602 8.46396 18.2227 8.46396H23.6719V13.991H19.6875C19.2871 13.9133 18.4863 14.0775 18.4863 15.3561V18.6523H23.6719L22.6758 24.6787H18.4863V35.6004H23C26.866 35.6004 30 32.4664 30 28.6004V7.82422C30 3.95823 26.866 0.824219 23 0.824219H7Z"/>
</mask>
<path d="M13.3594 35.6004V36.6004H14.3594V35.6004H13.3594ZM13.3594 24.6787H14.3594V23.6787H13.3594V24.6787ZM9.69727 24.6787H8.69727V25.6787H9.69727V24.6787ZM9.69727 18.6523V17.6523H8.69727V18.6523H9.69727ZM13.3594 18.6523V19.6523H14.3594V18.6523H13.3594ZM13.3594 13.991L12.3621 13.917L12.3594 13.9539V13.991H13.3594ZM23.6719 8.46396H24.6719V7.46396H23.6719V8.46396ZM23.6719 13.991V14.991H24.6719V13.991H23.6719ZM19.6875 13.991L19.497 14.9727L19.5914 14.991H19.6875V13.991ZM18.4863 18.6523H17.4863V19.6523H18.4863V18.6523ZM23.6719 18.6523L24.6585 18.8154L24.8507 17.6523H23.6719V18.6523ZM22.6758 24.6787V25.6787H23.5241L23.6624 24.8418L22.6758 24.6787ZM18.4863 24.6787V23.6787H17.4863V24.6787H18.4863ZM18.4863 35.6004H17.4863V36.6004H18.4863V35.6004ZM1 7.82422C1 4.51051 3.68629 1.82422 7 1.82422V-0.175781C2.58172 -0.175781 -1 3.40595 -1 7.82422H1ZM1 28.6004V7.82422H-1V28.6004H1ZM7 34.6004C3.68629 34.6004 1 31.9141 1 28.6004H-1C-1 33.0187 2.58172 36.6004 7 36.6004V34.6004ZM13.3594 34.6004H7V36.6004H13.3594V34.6004ZM12.3594 24.6787V35.6004H14.3594V24.6787H12.3594ZM9.69727 25.6787H13.3594V23.6787H9.69727V25.6787ZM8.69727 18.6523V24.6787H10.6973V18.6523H8.69727ZM13.3594 17.6523H9.69727V19.6523H13.3594V17.6523ZM12.3594 13.991V18.6523H14.3594V13.991H12.3594ZM18.2227 7.46396C16.0277 7.46396 14.5616 8.62568 13.6696 9.98906C12.8013 11.316 12.4396 12.8724 12.3621 13.917L14.3566 14.065C14.4158 13.2672 14.7046 12.0601 15.3431 11.0841C15.9579 10.1446 16.8551 9.46396 18.2227 9.46396V7.46396ZM23.6719 7.46396H18.2227V9.46396H23.6719V7.46396ZM24.6719 13.991V8.46396H22.6719V13.991H24.6719ZM19.6875 14.991H23.6719V12.991H19.6875V14.991ZM19.4863 15.3561C19.4863 15.1386 19.5206 15.0253 19.5399 14.9791C19.5568 14.939 19.5638 14.9443 19.5438 14.9596C19.5279 14.9718 19.515 14.9746 19.5139 14.9748C19.5135 14.9749 19.5137 14.9749 19.5135 14.9749C19.5132 14.9748 19.512 14.9748 19.5097 14.9746C19.5075 14.9744 19.5033 14.9739 19.497 14.9727L19.878 13.0093C19.4673 12.9296 18.8579 12.9668 18.3297 13.3703C17.763 13.8032 17.4863 14.5035 17.4863 15.3561H19.4863ZM19.4863 18.6523V15.3561H17.4863V18.6523H19.4863ZM23.6719 17.6523H18.4863V19.6523H23.6719V17.6523ZM23.6624 24.8418L24.6585 18.8154L22.6853 18.4892L21.6892 24.5157L23.6624 24.8418ZM18.4863 25.6787H22.6758V23.6787H18.4863V25.6787ZM19.4863 35.6004V24.6787H17.4863V35.6004H19.4863ZM23 34.6004H18.4863V36.6004H23V34.6004ZM29 28.6004C29 31.9141 26.3137 34.6004 23 34.6004V36.6004C27.4183 36.6004 31 33.0187 31 28.6004H29ZM29 7.82422V28.6004H31V7.82422H29ZM23 1.82422C26.3137 1.82422 29 4.51051 29 7.82422H31C31 3.40594 27.4183 -0.175781 23 -0.175781V1.82422ZM7 1.82422H23V-0.175781H7V1.82422Z" fill="white" mask="url(#path-1-inside-1)"/>
</svg>
