<svg width="56" height="66" viewBox="0 0 56 66" fill="none" xmlns="http://www.w3.org/2000/svg">
<path d="M50.3469 10.6843C49.3736 11.658 48.4112 12.6173 47.4017 13.6271C47.4777 13.6884 47.5826 13.757 47.673 13.8399C48.1615 14.3051 48.65 14.7704 49.1384 15.2356C49.9236 15.9857 50.0032 16.5556 49.3157 17.3887C48.7223 18.1063 48.0566 18.7735 47.3908 19.4263C45.5274 21.2476 43.6495 23.0472 41.7753 24.8576C41.7066 24.9225 41.645 24.991 41.5835 25.0596C45.5419 30.1771 47.2135 35.9366 46.3198 42.3417C45.4261 48.7504 42.2203 53.821 36.9956 57.6835C37.0752 57.6907 37.1331 57.7016 37.191 57.7016C38.0594 57.7016 38.9241 57.7016 39.7925 57.7052C42.5966 57.7088 45.0498 59.851 45.3574 62.6244C45.4478 63.4286 45.4189 64.2545 45.3574 65.0659C45.3067 65.7223 44.9087 66 44.2466 66C31.9409 66 19.6353 66 7.32965 66C6.28036 66 5.23107 66 4.1854 66C3.5703 66 3.19038 65.7584 3.11078 65.1597C2.78514 62.7001 3.17229 60.4641 5.2962 58.8412C6.28398 58.0874 7.40925 57.7088 8.65755 57.7016C9.31968 57.698 9.98182 57.7016 10.6982 57.7016C10.615 57.6294 10.5716 57.5825 10.5173 57.5465C8.57794 56.1508 6.91717 54.4774 5.4952 52.5624C5.43731 52.4866 5.30344 52.4289 5.20574 52.4289C3.87423 52.4217 2.54272 52.4253 1.20759 52.4217C0.476703 52.4217 0.00271368 51.9565 0.00271368 51.2352C-0.00090456 49.7674 -0.00090456 48.2959 0.00271368 46.8281C0.00271368 46.1032 0.476703 45.6344 1.20397 45.6344C4.70281 45.6344 8.20527 45.6344 11.7041 45.6344C18.0179 45.6344 24.3318 45.6344 30.642 45.6344C31.2896 45.6344 31.789 46.114 31.789 46.7596C31.7962 48.2671 31.7926 49.7782 31.789 51.2857C31.7853 51.9457 31.2969 52.4253 30.6311 52.4253C25.7682 52.4253 20.9053 52.4253 16.0388 52.4253C15.9592 52.4253 15.8832 52.4253 15.8036 52.4253C15.7855 52.447 15.7674 52.4686 15.7493 52.4938C15.7927 52.5083 15.8398 52.5155 15.8759 52.5407C17.9383 53.9725 20.2142 54.82 22.7216 55.022C26.4882 55.3249 29.9111 54.3223 32.9685 52.1548C36.6519 49.5474 38.906 45.9986 39.5573 41.523C40.1616 37.3612 39.2136 33.5383 36.8038 30.0834C36.7713 30.0401 36.7387 29.9968 36.7134 29.9643C34.8102 31.8649 32.9106 33.7619 30.9857 35.6806C31.0255 35.7202 31.0906 35.7924 31.1594 35.8645C31.6153 36.3189 32.0748 36.7733 32.5307 37.2313C33.0228 37.7254 33.0698 38.2267 32.6573 38.7893C32.1653 39.4637 31.4778 39.9037 30.7324 40.2319C30.0884 40.5168 29.4045 40.7116 28.7352 40.9352C28.6121 40.9748 28.547 41.0181 28.5072 41.1552C28.3372 41.7502 28.2178 42.3705 27.9572 42.9259C27.3819 44.1593 25.9021 44.7869 24.5452 44.4478C23.2282 44.1197 22.2296 42.8718 22.3055 41.5411C22.3417 40.9135 22.5335 40.2932 22.6746 39.6765C22.718 39.489 22.6927 39.3808 22.5371 39.2618C22.2332 39.0238 21.951 38.7641 21.6362 38.49C21.3431 38.7893 21.0609 39.0851 20.7714 39.37C20.2214 39.9037 19.5955 40.268 18.8031 40.3365C17.2002 40.4771 15.7384 39.3014 15.5575 37.7002C15.4454 36.712 15.7493 35.8753 16.4549 35.1793C16.7624 34.8763 17.0772 34.5806 17.3956 34.2741C17.0772 33.9062 16.795 33.5672 16.4983 33.2426C16.4585 33.1993 16.3391 33.1957 16.2667 33.2138C15.9049 33.2931 15.5503 33.4013 15.1885 33.477C13.184 33.881 11.4327 32.3049 11.6136 30.2745C11.7367 28.9077 12.5435 27.9628 13.8823 27.6238C14.15 27.5552 14.4142 27.4759 14.6855 27.4254C14.852 27.3929 14.9135 27.3064 14.946 27.1477C15.1885 26.0297 15.6299 24.991 16.3137 24.0714C16.5489 23.754 16.842 23.4655 17.1568 23.2275C17.5982 22.8921 18.0758 22.9173 18.5064 23.2708C18.8284 23.534 19.1179 23.837 19.411 24.1327C19.6823 24.4032 19.9465 24.6845 20.2034 24.955C20.8727 24.2806 21.5276 23.6206 22.1644 22.975C21.9148 22.7767 21.6036 22.5783 21.3576 22.3187C20.4241 21.3377 20.1997 20.1728 20.6158 18.9142C21.0355 17.6483 21.9184 16.808 23.2644 16.6638C24.1943 16.5664 25.1495 16.6565 26.0902 16.7215C26.7415 16.7647 27.3856 16.8946 28.0296 16.9992C28.1671 17.0208 28.2431 16.9883 28.3372 16.8982C30.2584 14.9795 32.1797 13.0645 34.101 11.1495C35.6062 9.64921 37.1114 8.15253 38.6166 6.65225C39.1919 6.07882 39.8576 6.07882 40.4402 6.65946C41.0734 7.2942 41.7066 7.92893 42.3253 8.54924C43.3022 7.56828 44.2683 6.60176 45.2416 5.62441C45.133 5.49458 44.9811 5.32507 44.8472 5.14836C44.5939 4.80935 44.5252 4.43789 44.7784 4.07724C45.01 3.74545 45.256 3.41005 45.5419 3.12514C46.4826 2.17664 47.4415 1.24618 48.4003 0.312106C48.8526 -0.124275 49.5509 -0.0990296 50.014 0.362596C51.7761 2.11533 53.5346 3.87167 55.2967 5.62801C55.4233 5.75424 55.5572 5.88047 55.6802 6.01391C56.0999 6.46471 56.1108 7.1319 55.6874 7.57189C54.8191 8.4699 53.9398 9.36069 53.057 10.2479C52.782 10.5256 52.4998 10.8069 52.1886 11.0413C51.6205 11.4705 51.1972 11.438 50.6581 10.98C50.564 10.8754 50.4591 10.7816 50.3469 10.6843ZM8.31381 52.4217C8.38618 52.5119 8.42598 52.566 8.4694 52.6165C9.34863 53.6299 10.3111 54.5567 11.3748 55.3754C15.9519 58.8881 21.1151 60.1684 26.803 59.3317C30.3851 58.8051 33.6234 57.4094 36.4963 55.2059C39.1557 53.1646 41.2 50.6257 42.5532 47.5602C44.1561 43.9213 44.6192 40.1237 44.0476 36.1999C43.5953 33.102 42.4664 30.2601 40.679 27.6923C38.2258 24.1616 34.9766 21.6334 30.9387 20.1259C28.6592 19.2748 26.2965 18.8637 23.8614 18.8637C23.5249 18.8637 23.2173 18.9611 23.0003 19.2315C22.6818 19.6246 22.642 20.061 22.8483 20.5118C23.0401 20.941 23.4091 21.1141 23.8614 21.1177C24.936 21.1213 25.9998 21.2115 27.0599 21.4026C30.5877 22.0374 33.656 23.5881 36.2792 26.0153C37.4153 27.0684 38.3995 28.2513 39.2208 29.5676C41.6233 33.4193 42.4736 37.5956 41.797 42.0712C41.3447 45.0646 40.1833 47.7766 38.3126 50.1641C35.1358 54.2177 31.0002 56.634 25.855 57.2435C22.9713 57.5825 20.1853 57.1462 17.515 55.9993C15.5937 55.1734 13.8823 54.023 12.3554 52.602C12.2179 52.4758 12.0804 52.4217 11.8959 52.4253C10.7923 52.4325 9.68874 52.4289 8.58518 52.4289C8.50558 52.4217 8.4296 52.4217 8.31381 52.4217ZM5.31429 63.7279C17.9275 63.7279 30.5226 63.7279 43.1321 63.7279C43.1321 63.627 43.1394 63.5476 43.1321 63.4719C43.1068 63.2302 43.0815 62.9886 43.0417 62.747C42.7812 61.2611 41.6704 60.1648 40.1688 60.0061C39.3583 59.9231 38.5297 59.9808 37.712 59.97C36.2394 59.9484 34.7668 59.9231 33.2941 59.9051C33.1567 59.9051 33.0047 59.9123 32.878 59.9592C32.3281 60.1684 31.7962 60.4172 31.239 60.612C29.3792 61.2611 27.4615 61.6542 25.4968 61.7913C21.8569 62.0473 18.3544 61.4631 14.9895 60.0566C14.8484 59.9989 14.6892 59.9628 14.5372 59.9628C12.5761 59.9592 10.6114 59.9592 8.65031 59.9664C8.44769 59.9664 8.24145 59.9916 8.03883 60.0313C6.29845 60.3848 5.29982 61.8706 5.31429 63.7279ZM39.5826 8.95316C36.641 11.8852 33.7392 14.7776 30.8374 17.67C31.3367 17.8575 31.8468 18.0378 32.3462 18.247C32.5379 18.3263 32.6429 18.2975 32.7876 18.1532C34.5822 16.3536 36.3769 14.5576 38.186 12.776C38.3488 12.6173 38.5949 12.4983 38.8192 12.4514C39.2968 12.3504 39.7889 12.6462 40.0168 13.1042C40.2412 13.5586 40.1543 14.0202 39.7599 14.4133C38.2909 15.8812 36.8183 17.3454 35.3457 18.8096C35.1575 18.9971 34.9477 19.163 34.7197 19.365C36.7459 20.465 38.4936 21.7885 40.0566 23.3826C42.3868 21.0384 44.6988 18.7158 47.0037 16.4005C44.5288 13.9156 42.0539 11.4308 39.5826 8.95316ZM29.296 34.0216C31.2752 32.0489 33.229 30.105 35.2154 28.1251C34.727 27.7031 34.2421 27.2595 33.7356 26.8412C32.5633 25.8818 31.2643 25.1389 29.8641 24.5583C29.7012 24.4898 29.6035 24.5114 29.4769 24.6412C28.4964 25.633 27.5158 26.6176 26.5172 27.5877C26.358 27.7428 26.1192 27.8546 25.9021 27.9015C25.4317 27.9988 24.9432 27.7175 24.7153 27.2739C24.4801 26.8123 24.5489 26.3579 24.9432 25.9612C25.6199 25.2796 26.3037 24.6052 26.9803 23.9271C27.0346 23.8731 27.0816 23.819 27.1829 23.7072C26.434 23.6134 25.7501 23.5196 25.0663 23.4439C25.0048 23.4367 24.9179 23.4872 24.8709 23.5376C23.941 24.4753 23.0111 25.4166 22.0848 26.3579C22.0089 26.4336 21.9365 26.5094 21.8497 26.6031C24.3571 29.0916 26.8356 31.5656 29.296 34.0216ZM29.5095 47.9064C20.4204 47.9064 11.3568 47.9064 2.29306 47.9064C2.29306 48.6674 2.29306 49.4031 2.29306 50.1424C11.3748 50.1424 20.4385 50.1424 29.5095 50.1424C29.5095 49.3923 29.5095 48.6602 29.5095 47.9064ZM17.8551 25.8782C17.8479 25.8891 17.8262 25.9107 17.8081 25.9359C16.7009 27.7464 16.8782 30.1158 18.235 31.7495C19.9284 33.7872 21.8062 35.6373 23.8144 37.3648C25.1676 38.5333 26.6872 39.0093 28.4493 38.6523C29.021 38.5369 29.5565 38.3241 30.0377 38.0139C25.9744 33.9711 21.922 29.9319 17.8551 25.8782ZM53.2017 6.81093C51.8593 5.46933 50.5134 4.12412 49.1927 2.80416C48.6174 3.37398 48.0276 3.95462 47.4704 4.50641C48.8092 5.8408 50.1515 7.18239 51.4939 8.52039C52.0583 7.95417 52.6409 7.37354 53.2017 6.81093ZM44.0548 10.1505C44.6446 10.7492 45.2307 11.3406 45.7843 11.9032C46.7468 10.9475 47.7128 9.98821 48.6427 9.06496C48.071 8.48432 47.4885 7.89287 46.9096 7.31223C45.9544 8.26072 44.9919 9.21643 44.0548 10.1505ZM18.9044 35.9114C18.586 36.2576 18.2495 36.5894 17.9564 36.9536C17.7321 37.2277 17.7538 37.5018 17.9456 37.7543C18.2133 38.1077 18.5715 38.1907 18.9297 37.9166C19.3024 37.6353 19.628 37.2963 19.9537 37.0005C19.5991 36.6291 19.2698 36.2865 18.9044 35.9114ZM24.7551 40.6178C24.6972 40.9352 24.614 41.2381 24.5923 41.5447C24.5706 41.8909 24.8202 42.1722 25.1423 42.2371C25.5077 42.3092 25.8587 42.1325 25.9781 41.7863C26.0685 41.5302 26.1228 41.2634 26.1915 41.0037C25.7248 40.8775 25.2725 40.7585 24.7551 40.6178ZM14.8737 29.7083C14.6892 29.7624 14.4938 29.7984 14.3165 29.8706C13.9836 30.0076 13.8135 30.3647 13.8968 30.7001C13.9872 31.0607 14.2948 31.2951 14.6638 31.2555C14.8701 31.2338 15.0691 31.1689 15.2572 31.1256C15.1233 30.6351 15.0003 30.1843 14.8737 29.7083Z" fill="#828282"/>
</svg>
