<svg width="67" height="67" viewBox="0 0 67 67" fill="none" xmlns="http://www.w3.org/2000/svg">
<path d="M66.9972 33.5489C66.9056 33.7905 66.8556 34.0571 66.7224 34.2737C66.3726 34.8319 65.6396 35.0318 65.0399 34.7735C64.4153 34.507 64.0821 33.8405 64.2321 33.174C64.3736 32.5325 64.965 32.0827 65.648 32.0993C66.2809 32.116 66.8473 32.6075 66.9556 33.249C66.9639 33.3156 66.9889 33.3906 66.9972 33.4573C66.9972 33.4906 66.9972 33.5156 66.9972 33.5489Z" fill="#828282"/>
<path d="M5.58042 33.4656C5.61373 18.0534 18.107 5.55709 33.482 5.57375C48.907 5.59041 61.4169 18.1034 61.4003 33.5073C61.3836 48.9111 48.8404 61.4408 33.4654 61.4075C18.0487 61.3742 5.5471 48.8528 5.58042 33.4656ZM46.8415 12.2385C46.7665 12.1802 46.7082 12.1385 46.6416 12.1052C46.0586 11.7719 45.4755 11.422 44.8842 11.1221C41.6193 9.44762 38.1545 8.53955 34.4898 8.38959C32.2993 8.29795 30.1338 8.51456 27.9933 8.99775C27.8934 9.02274 27.7768 9.11438 27.7185 9.20602C26.6857 10.9722 25.9611 12.8633 25.4114 14.8294C25.2864 15.2709 25.2115 15.7291 25.1115 16.179C25.0699 16.3706 25.0949 16.5206 25.3364 16.5539C25.528 16.5789 25.7195 16.6539 25.9111 16.6705C26.5108 16.7205 27.1105 16.7205 27.7018 16.8121C29.3509 17.0537 30.6835 18.2117 30.6752 20.1695C30.6752 21.8024 30.6752 23.4352 30.6752 25.0681C30.6752 25.3097 30.6585 25.5513 30.6336 25.7929C30.4087 27.8089 28.9012 29.2085 26.8773 29.2918C26.4108 29.3085 25.9444 29.3335 25.478 29.3835C24.5285 29.4835 23.9788 29.9833 23.8206 30.9247C23.7373 31.3912 23.7206 31.8661 23.704 32.341C23.6623 33.6156 22.9627 34.4903 21.73 34.8152C20.6723 35.0985 19.4313 34.5237 19.1481 33.6073C19.1398 33.5656 19.0815 33.5156 19.0481 33.5073C18.7483 33.499 18.4401 33.499 18.1403 33.499C18.1403 34.432 18.057 35.3484 18.157 36.2315C18.3152 37.5561 18.7733 37.6727 19.7561 37.6894C19.8061 37.6894 19.856 37.6894 19.906 37.6894C21.8133 37.6894 23.7123 37.6811 25.6196 37.6894C26.7523 37.6977 27.8101 37.981 28.7179 38.6891C29.151 39.0307 29.5591 39.3972 29.9589 39.7721C30.4337 40.2137 30.9251 40.4886 31.6247 40.4886C33.1156 40.4803 34.2566 41.5466 34.7147 42.8462C34.9312 43.4544 34.8729 44.0875 34.8063 44.7124C34.5898 46.7201 33.6736 48.3363 32.0161 49.5026C31.9495 49.5526 31.8829 49.6193 31.8496 49.6942C31.025 51.827 30.2421 53.9763 29.6757 56.2007C29.5092 56.8672 29.3676 57.5336 29.2093 58.2251C32.4492 58.8083 35.6392 58.7333 38.8125 58.0418C41.7359 57.4003 44.4594 56.2673 46.9914 54.6511C46.9331 54.5178 46.8831 54.4012 46.8331 54.2929C46.1918 52.8767 45.5505 51.4604 44.9092 50.0358C44.5094 49.1527 44.1263 48.2697 43.7265 47.3949C43.6848 47.3116 43.5932 47.22 43.5016 47.195C41.8775 46.7201 40.4449 45.9287 39.3122 44.6624C37.8713 43.0628 37.3466 41.1884 37.8213 39.0807C38.2378 37.2062 39.4788 36.0399 41.2528 35.4067C42.3522 35.0152 43.5016 34.8985 44.6677 34.8819C45.5588 34.8736 46.4084 34.6819 47.2246 34.3404C48.2657 33.9072 49.1985 33.3073 49.9315 32.4409C50.0647 32.291 50.1897 32.0744 50.1897 31.8828C50.198 30.7831 49.9814 29.7334 49.515 28.7337C49.2485 28.1672 49.2402 28.1672 48.6488 28.3338C47.5161 28.6587 46.6582 29.3418 45.9919 30.2999C45.5422 30.9497 45.0758 31.5912 44.4678 32.1077C43.41 32.9991 42.1607 33.3823 40.7947 33.4906C39.8952 33.5573 39.2872 33.1824 38.8541 32.4409C38.3627 31.5912 38.0129 30.6831 37.8047 29.7334C37.7047 29.2752 37.6464 28.7837 37.6964 28.3255C37.7714 27.5673 38.2295 27.0175 38.8791 26.6593C39.3205 26.4177 39.787 26.2344 40.2617 26.0178C40.0368 25.7929 39.8119 25.5513 39.5704 25.318C39.2539 25.0098 39.0957 24.6349 39.079 24.2017C39.0623 23.9267 39.0707 23.6435 39.1206 23.3686C39.2706 22.6105 39.637 21.9773 40.3283 21.5691C41.0196 21.1609 41.7026 20.7277 42.3939 20.3111C42.7937 20.0695 43.1685 19.8196 43.4017 19.3947C43.5016 19.2114 43.6349 19.0365 43.7265 18.8449C44.3928 17.4953 45.0674 16.154 45.7088 14.7877C46.1252 13.9546 46.4667 13.0966 46.8415 12.2385ZM49.3235 52.985C55.1453 48.3113 59.6762 40.0637 58.3852 30.1333C57.9688 26.9342 56.9527 23.9351 55.3619 21.1276C53.7711 18.32 51.7055 15.9041 49.1736 13.8713C49.1236 13.9796 49.0986 14.0546 49.0653 14.1213C48.1908 16.1957 47.2912 18.2617 46.1752 20.2195C45.8087 20.8693 45.4422 21.5358 44.8592 22.019C44.4927 22.3189 44.0763 22.5521 43.6682 22.8021C43.1351 23.1353 42.5854 23.4685 41.9608 23.8518C42.2856 24.1433 42.6021 24.3933 42.877 24.6765C43.2101 25.0181 43.3434 25.4346 43.2351 25.9095C43.1518 26.2927 43.0519 26.6759 42.9353 27.0508C42.6937 27.8173 42.1857 28.3421 41.4111 28.5921C41.1279 28.6837 40.853 28.8003 40.5615 28.917C40.6698 29.5168 40.8031 30.075 41.0946 30.6081C41.3611 30.5498 41.6276 30.5082 41.8775 30.4415C42.4772 30.2749 42.8769 29.8583 43.2184 29.3668C43.7848 28.5587 44.3512 27.7423 45.1341 27.1175C46.3751 26.1178 47.8076 25.5013 49.3485 25.1514C49.9148 25.0181 50.4229 25.1597 50.7893 25.6179C51.1475 26.0678 51.5056 26.526 51.7888 27.0258C52.6217 28.4837 52.9548 30.0666 53.0298 31.7328C53.0714 32.5992 52.8049 33.3323 52.2719 34.0071C51.464 35.0235 50.4645 35.7983 49.3401 36.4148C47.7826 37.2729 46.1169 37.6894 44.3345 37.6727C43.5932 37.6644 42.8603 37.7644 42.1523 38.0226C41.3111 38.3309 40.6948 38.8641 40.5282 39.7888C40.2867 41.1301 40.6781 42.2631 41.7359 43.1461C42.6604 43.9126 43.7182 44.4041 44.8925 44.6624C45.3256 44.7623 45.6588 44.979 45.8753 45.3705C46.0336 45.6621 46.2002 45.9453 46.3334 46.2452C47.058 47.8781 47.766 49.511 48.4823 51.1438C48.7488 51.7603 49.032 52.3601 49.3235 52.985ZM8.55381 30.6748C8.59546 30.6831 8.6371 30.6914 8.67875 30.6914C10.3695 30.7914 11.5938 31.6995 12.4767 33.0574C13.0514 33.9405 13.676 34.7486 14.5173 35.3901C14.7838 35.59 15.0503 35.79 15.3252 35.9982C15.3418 35.9482 15.3418 35.9316 15.3418 35.9233C15.3418 34.9902 15.3418 34.0655 15.3418 33.1324C15.3418 31.7495 16.258 30.9414 17.4157 30.7498C17.9238 30.6664 18.4485 30.6914 18.9732 30.6998C19.6978 30.7081 20.4141 30.7997 20.9555 31.3746C20.9721 31.1746 20.9888 30.9747 21.0138 30.7831C21.147 29.6334 21.5718 28.6337 22.4463 27.8589C23.3542 27.0592 24.4452 26.6926 25.6279 26.5676C26.061 26.5177 26.5025 26.526 26.9439 26.4677C27.5519 26.3927 27.8517 26.0844 27.8767 25.4763C27.91 24.8265 27.9017 24.1767 27.9017 23.5185C27.9017 22.4438 27.9017 21.3608 27.9017 20.2861C27.9017 19.6946 27.7601 19.553 27.1688 19.5364C27.1354 19.5364 27.1105 19.5364 27.0771 19.5364C26.5108 19.503 25.9528 19.4947 25.3947 19.4364C24.7201 19.3614 24.0704 19.1615 23.5374 18.7199C22.488 17.8452 22.1465 16.7122 22.4047 15.3876C22.6795 13.9963 23.121 12.6634 23.6207 11.3387C23.7623 10.9722 23.9122 10.6139 24.0621 10.2307C16.4162 13.1382 9.55328 20.9026 8.55381 30.6748ZM20.9388 55.251C20.9055 54.4012 21.0304 53.5931 20.7805 52.8183C20.3474 51.4521 19.9143 50.0941 19.4563 48.7362C18.7733 46.7118 18.1653 44.679 18.1486 42.5213C18.1403 42.0881 17.9987 41.7216 17.7572 41.38C17.3824 40.8468 16.891 40.4303 16.3579 40.0637C15.3085 39.3389 14.2341 38.6308 13.193 37.8893C11.9686 37.0146 10.9359 35.9649 10.1946 34.6403C9.97804 34.2487 9.64489 33.9821 9.28675 33.7239C9.02023 33.5323 8.71206 33.4656 8.37891 33.5156C8.33727 37.0729 9.17015 42.0381 12.1935 46.8201C14.4007 50.3357 17.3158 53.1266 20.9388 55.251ZM26.4941 57.6503C26.5274 57.542 26.5441 57.492 26.5524 57.442C26.694 56.8172 26.8106 56.184 26.9689 55.5592C27.6019 53.1016 28.4764 50.7189 29.3842 48.353C29.5175 48.0114 29.7507 47.7615 30.0755 47.5865C30.1755 47.5365 30.2754 47.4866 30.3587 47.4199C31.583 46.5702 32.0328 45.3455 32.0828 43.9209C32.0994 43.4711 31.8412 43.2628 31.3832 43.2461C30.2921 43.2211 29.3093 42.8962 28.4847 42.1714C28.2682 41.9798 28.0516 41.7965 27.8434 41.6049C27.6352 41.4216 27.427 41.2384 27.2271 41.0384C26.769 40.5719 26.186 40.4469 25.5613 40.4469C23.9288 40.4469 22.2964 40.4469 20.6639 40.4469C20.6056 40.4469 20.5557 40.4553 20.514 40.4636C20.6223 40.8385 20.7722 41.1967 20.8305 41.5633C20.9055 42.0131 20.9055 42.4797 20.9388 42.9379C21.0304 44.1875 21.3053 45.3955 21.6967 46.5785C22.1715 48.0281 22.6962 49.461 23.1876 50.9106C23.4541 51.6937 23.6707 52.4934 23.6873 53.3265C23.7123 54.3512 23.6956 55.3759 23.7123 56.4006C23.7123 56.4756 23.7623 56.6006 23.8206 56.6256C24.7034 56.9838 25.5863 57.317 26.4941 57.6503Z" fill="#828282"/>
<path d="M56.1864 57.5919C55.4285 57.5919 54.7872 56.9588 54.7872 56.1923C54.7872 55.4259 55.4202 54.7927 56.1864 54.7927C56.9444 54.7927 57.5857 55.4342 57.5857 56.1923C57.5857 56.9504 56.9444 57.5919 56.1864 57.5919Z" fill="#828282"/>
<path d="M61.292 18.8282C60.5174 18.8282 59.8927 18.2034 59.8927 17.4286C59.9011 16.6538 60.5174 16.0457 61.3003 16.0457C62.0582 16.0457 62.6829 16.6705 62.6829 17.4286C62.6912 18.195 62.0582 18.8282 61.292 18.8282Z" fill="#828282"/>
<path d="M18.8316 61.3158C18.8233 62.0906 18.1819 62.7154 17.424 62.6988C16.6328 62.6821 16.0414 62.049 16.0581 61.2325C16.0664 60.5077 16.7161 59.8996 17.4573 59.9079C18.2236 59.9079 18.8399 60.5411 18.8316 61.3158Z" fill="#828282"/>
<path d="M9.39502 56.1923C9.39502 55.4259 10.028 54.7927 10.7943 54.7927C11.5688 54.8011 12.1852 55.4259 12.1852 56.2007C12.1852 56.9588 11.5522 57.5836 10.7943 57.5919C10.028 57.5919 9.39502 56.9588 9.39502 56.1923Z" fill="#828282"/>
<path d="M18.8316 5.69872C18.8149 6.4735 18.1902 7.08999 17.4157 7.07332C16.6328 7.05666 16.0414 6.42351 16.0497 5.60708C16.0664 4.89063 16.7077 4.28247 17.449 4.28247C18.2236 4.2908 18.8399 4.93228 18.8316 5.69872Z" fill="#828282"/>
<path d="M50.9309 61.2992C50.9309 62.0656 50.2896 62.6987 49.5234 62.6904C48.7571 62.6821 48.1324 62.0489 48.1408 61.2742C48.1491 60.516 48.7738 59.8996 49.5317 59.8912C50.2979 59.8996 50.9309 60.5327 50.9309 61.2992Z" fill="#828282"/>
<path d="M56.1781 9.38924C56.9444 9.38091 57.5857 10.0141 57.5857 10.7805C57.5857 11.5386 56.961 12.1718 56.2031 12.1801C55.4285 12.1884 54.7955 11.5719 54.7872 10.7972C54.7789 10.0307 55.4119 9.39757 56.1781 9.38924Z" fill="#828282"/>
<path d="M61.3003 50.9356C60.534 50.9439 59.8927 50.3108 59.8927 49.5443C59.8927 48.7862 60.5091 48.1531 61.267 48.1447C62.0332 48.1364 62.6746 48.7529 62.6829 49.5193C62.6995 50.2858 62.0666 50.9273 61.3003 50.9356Z" fill="#828282"/>
<path d="M64.4986 43.1878C63.7324 43.1878 63.0994 42.563 63.0994 41.7965C63.0994 41.0384 63.724 40.4136 64.4819 40.4053C65.2565 40.4053 65.8895 41.0134 65.8979 41.7882C65.9062 42.5463 65.2732 43.1878 64.4986 43.1878Z" fill="#828282"/>
<path d="M5.67201 18.8281C4.89742 18.8198 4.27276 18.1867 4.28942 17.4202C4.30608 16.6205 4.93074 16.0373 5.74696 16.0456C6.4799 16.054 7.08791 16.7121 7.07958 17.4619C7.07125 18.22 6.42993 18.8365 5.67201 18.8281Z" fill="#828282"/>
<path d="M43.1851 64.4983C43.1851 65.2647 42.5604 65.9062 41.7942 65.9062C41.0363 65.9062 40.4116 65.2814 40.4033 64.5233C40.4033 63.7485 41.0113 63.1153 41.7858 63.107C42.5521 63.0987 43.1851 63.7235 43.1851 64.4983Z" fill="#828282"/>
<path d="M26.5691 64.5066C26.5691 65.273 25.9361 65.9062 25.1698 65.9062C24.4036 65.9062 23.7789 65.2647 23.7872 64.4982C23.7872 63.7401 24.4119 63.1153 25.1781 63.1153C25.9361 63.0986 26.5691 63.7318 26.5691 64.5066Z" fill="#828282"/>
<path d="M64.4736 26.5675C63.699 26.5509 63.0744 25.9094 63.0994 25.1513C63.1243 24.3682 63.7573 23.7683 64.5486 23.785C65.2815 23.8017 65.9062 24.4515 65.8895 25.1929C65.8812 25.9677 65.2399 26.5842 64.4736 26.5675Z" fill="#828282"/>
<path d="M10.7859 12.1801C10.0114 12.1801 9.39502 11.5552 9.39502 10.7805C9.39502 10.0224 10.0114 9.39754 10.7776 9.39754C11.5522 9.38921 12.1769 10.014 12.1769 10.7888C12.1852 11.5552 11.5605 12.1801 10.7859 12.1801Z" fill="#828282"/>
<path d="M26.5691 2.47464C26.5691 3.24941 25.9444 3.8659 25.1698 3.8659C24.4036 3.8659 23.7872 3.23275 23.7872 2.45797C23.7872 1.69986 24.4119 1.08337 25.1781 1.08337C25.9527 1.08337 26.5691 1.69986 26.5691 2.47464Z" fill="#828282"/>
<path d="M2.47377 26.5676C1.69918 26.5593 1.08285 25.9345 1.09118 25.1597C1.09951 24.3849 1.72417 23.7768 2.50708 23.7851C3.27333 23.7934 3.88967 24.4266 3.88134 25.2014C3.86468 25.9595 3.23169 26.576 2.47377 26.5676Z" fill="#828282"/>
<path d="M5.65536 50.9354C4.88078 50.9188 4.26444 50.2773 4.28943 49.5109C4.31442 48.7361 4.94741 48.1363 5.72199 48.1529C6.48824 48.1696 7.10458 48.8194 7.07959 49.5942C7.0546 50.344 6.41328 50.9521 5.65536 50.9354Z" fill="#828282"/>
<path d="M2.49042 43.1878C1.71584 43.1961 1.09118 42.5796 1.08285 41.8048C1.07452 41.0467 1.69085 40.4136 2.44878 40.4052C3.23169 40.3969 3.85635 41.0051 3.86468 41.7798C3.88134 42.5546 3.265 43.1878 2.49042 43.1878Z" fill="#828282"/>
<path d="M34.8813 65.6063C34.8729 66.381 34.2399 67.0058 33.4737 66.9892C32.6908 66.9725 32.0911 66.3394 32.0994 65.5479C32.1077 64.7982 32.7574 64.1817 33.5236 64.1983C34.2732 64.215 34.8896 64.8481 34.8813 65.6063Z" fill="#828282"/>
<path d="M50.9309 5.67373C50.9309 6.44851 50.3062 7.07333 49.5317 7.07333C48.7654 7.07333 48.1407 6.44018 48.1407 5.67373C48.1407 4.91562 48.7654 4.2908 49.5233 4.28247C50.2979 4.28247 50.9309 4.90729 50.9309 5.67373Z" fill="#828282"/>
<path d="M43.1851 2.50796C43.1684 3.28274 42.5354 3.88256 41.7525 3.8659C40.9863 3.84924 40.3866 3.19943 40.4033 2.40799C40.4199 1.67487 41.0779 1.05838 41.8192 1.08338C42.6021 1.10837 43.2018 1.73319 43.1851 2.50796Z" fill="#828282"/>
<path d="M33.4737 2.77452C32.6824 2.76619 32.0828 2.14137 32.0911 1.34994C32.0994 0.600155 32.7407 -0.0163318 33.4987 0.000329999C34.2732 0.0169918 34.8812 0.64181 34.8729 1.41658C34.8646 2.1747 34.2399 2.78285 33.4737 2.77452Z" fill="#828282"/>
<path d="M2.77359 33.5073C2.76526 34.2737 2.14892 34.8819 1.38267 34.8819C0.608088 34.8819 -0.00824541 34.2487 8.34271e-05 33.4823C0.00841226 32.6908 0.633075 32.091 1.42431 32.0993C2.17391 32.1077 2.78191 32.7408 2.77359 33.5073Z" fill="#828282"/>
</svg>
