<svg width="84" height="70" viewBox="0 0 84 70" fill="none" xmlns="http://www.w3.org/2000/svg">
<mask id="path-1-inside-1" fill="white">
<rect x="53.0417" y="18.8195" width="30.7083" height="7.44445" rx="2"/>
</mask>
<rect x="53.0417" y="18.8195" width="30.7083" height="7.44445" rx="2" stroke="#828282" stroke-width="6" mask="url(#path-1-inside-1)"/>
<mask id="path-2-inside-2" fill="white">
<path fill-rule="evenodd" clip-rule="evenodd" d="M57.7644 11.1927C56.6884 11.2942 55.8878 12.2321 55.9562 13.3106L56.306 18.8195H55.0417C53.9371 18.8195 53.0417 19.7149 53.0417 20.8195V24.2639C53.0417 25.3685 53.9371 26.2639 55.0417 26.2639H56.7787L59.4366 68.1267C59.5035 69.1799 60.3772 69.9999 61.4326 69.9999H76.2415C77.3164 69.9999 78.1991 69.1503 78.2401 68.0762L79.836 26.2639H81.75C82.8546 26.2639 83.75 25.3685 83.75 24.2639V20.8195C83.75 19.7149 82.8546 18.8195 81.75 18.8195H80.1201L80.406 11.3305C80.4521 10.1221 79.4235 9.14948 78.2196 9.26306L57.7644 11.1927Z"/>
</mask>
<path d="M55.9562 13.3106L58.9502 13.1205L55.9562 13.3106ZM57.7644 11.1927L57.4826 8.20599L57.7644 11.1927ZM56.306 18.8195V21.8195H59.5025L59.3 18.6294L56.306 18.8195ZM56.7787 26.2639L59.7726 26.0738L59.5942 23.2639H56.7787V26.2639ZM59.4366 68.1267L56.4426 68.3167L59.4366 68.1267ZM78.2401 68.0762L81.2379 68.1906L78.2401 68.0762ZM79.836 26.2639V23.2639H76.9483L76.8382 26.1495L79.836 26.2639ZM80.1201 18.8195L77.1223 18.705L77.0034 21.8195H80.1201V18.8195ZM80.406 11.3305L77.4081 11.2161V11.2161L80.406 11.3305ZM78.2196 9.26306L77.9378 6.27632L78.2196 9.26306ZM58.9502 13.1205C58.9844 13.6598 58.5841 14.1287 58.0461 14.1795L57.4826 8.20599C54.7928 8.45974 52.7911 10.8044 52.9623 13.5007L58.9502 13.1205ZM59.3 18.6294L58.9502 13.1205L52.9623 13.5007L53.312 19.0096L59.3 18.6294ZM55.0417 21.8195H56.306V15.8195H55.0417V21.8195ZM56.0417 20.8195C56.0417 21.3717 55.5939 21.8195 55.0417 21.8195V15.8195C52.2802 15.8195 50.0417 18.058 50.0417 20.8195H56.0417ZM56.0417 24.2639V20.8195H50.0417V24.2639H56.0417ZM55.0417 23.2639C55.5939 23.2639 56.0417 23.7116 56.0417 24.2639H50.0417C50.0417 27.0253 52.2802 29.2639 55.0417 29.2639V23.2639ZM56.7787 23.2639H55.0417V29.2639H56.7787V23.2639ZM62.4306 67.9366L59.7726 26.0738L53.7847 26.454L56.4426 68.3167L62.4306 67.9366ZM61.4326 66.9999C61.9603 66.9999 62.3971 67.4099 62.4306 67.9366L56.4426 68.3167C56.6098 70.9498 58.7942 72.9999 61.4326 72.9999V66.9999ZM76.2415 66.9999H61.4326V72.9999H76.2415V66.9999ZM75.2423 67.9618C75.2628 67.4247 75.7041 66.9999 76.2415 66.9999V72.9999C78.9288 72.9999 81.1354 70.8759 81.2379 68.1906L75.2423 67.9618ZM76.8382 26.1495L75.2423 67.9618L81.2379 68.1906L82.8338 26.3783L76.8382 26.1495ZM81.75 23.2639H79.836V29.2639H81.75V23.2639ZM80.75 24.2639C80.75 23.7116 81.1977 23.2639 81.75 23.2639V29.2639C84.5114 29.2639 86.75 27.0253 86.75 24.2639H80.75ZM80.75 20.8195V24.2639H86.75V20.8195H80.75ZM81.75 21.8195C81.1977 21.8195 80.75 21.3717 80.75 20.8195H86.75C86.75 18.058 84.5114 15.8195 81.75 15.8195V21.8195ZM80.1201 21.8195H81.75V15.8195H80.1201V21.8195ZM77.4081 11.2161L77.1223 18.705L83.1179 18.9339L83.4038 11.4449L77.4081 11.2161ZM78.5013 12.2498C77.8994 12.3066 77.3851 11.8203 77.4081 11.2161L83.4038 11.4449C83.5191 8.42387 80.9477 5.99238 77.9378 6.27632L78.5013 12.2498ZM58.0461 14.1795L78.5013 12.2498L77.9378 6.27632L57.4826 8.20599L58.0461 14.1795Z" fill="#828282" mask="url(#path-2-inside-2)"/>
<path d="M76.7708 9.51389V3L70.2569 5.79167V10.4444" stroke="#828282" stroke-width="3"/>
<path d="M63.7431 35.1041H73.0486" stroke="#828282" stroke-width="3"/>
<path d="M65.6042 41.1527H71.1875" stroke="#828282" stroke-width="3"/>
<path d="M63.7431 47.2014H73.0486" stroke="#828282" stroke-width="3"/>
<path d="M65.6042 53.25H71.6528" stroke="#828282" stroke-width="3"/>
<path d="M63.7431 59.2986H72.1181" stroke="#828282" stroke-width="3"/>
<rect x="5.2222" y="14.7361" width="36.0833" height="5.375" rx="1.5" stroke="#828282" stroke-width="3"/>
<rect x="1.49998" y="25.9027" width="43.5278" height="42.5972" rx="8.5" stroke="#828282" stroke-width="3"/>
<rect x="8.60761" y="21.8437" width="29.3125" height="2.32639" stroke="#828282" stroke-width="2.32639"/>
<path d="M0.465256 35.5695H46.0625" stroke="#828282" stroke-width="3"/>
<path d="M0.465256 59.2986H46.0625" stroke="#828282" stroke-width="3"/>
<path d="M18.6111 48.132L25.5903 38.8264L23.7291 45.3403H28.3819L20.4722 55.5764L22.7986 48.132H18.6111Z" stroke="#828282" stroke-width="3"/>
</svg>
