<svg width="65" height="62" viewBox="0 0 65 62" fill="none" xmlns="http://www.w3.org/2000/svg">
<path d="M46.035 15.2343L47.8386 16.6208C48.0736 17.9545 48.479 21.7615 45.8646 23.0717C42.504 24.752 40.0835 22.9718 39.9954 22.9013L39.8544 22.8014C39.7427 22.7309 37.193 21.0154 38.5266 15.8218L38.5912 15.5809L38.1212 10.1876H29.0736L0.884906 37.7065L0.738029 37.8769C-0.107984 39.0049 -0.425238 40.8086 0.873156 42.1128C1.84842 43.0881 19.5207 61.0894 19.7028 61.2715L19.7968 61.3596C20.1669 61.6769 20.8426 62 21.7003 62C22.564 62 23.6097 61.671 24.7143 60.6664C26.5355 59.0096 50.3531 35.192 51.3695 34.1815L51.7984 33.7526V13.131L45.894 9.68823C45.6472 11.5271 45.659 13.4189 46.035 15.2343ZM48.855 32.5306C45.5532 35.8324 24.3735 57.0003 22.7344 58.4926C22.1645 59.0096 21.7943 59.0801 21.6533 59.0625C19.8321 57.2118 3.89883 40.979 2.94119 40.0389C2.93531 39.9743 2.98819 39.8157 3.05281 39.6982L30.2721 13.1252H35.4304L35.6243 15.3401C34.0028 22.0788 37.5925 24.8166 38.2505 25.2513C38.8027 25.6567 42.4218 28.0714 47.1865 25.692C47.8504 25.363 48.4026 24.9517 48.8609 24.4993V32.5306H48.855Z" fill="#828282"/>
<path d="M30.2721 27.2547C28.304 27.1842 26.3887 27.6307 24.5498 28.5825L21.7826 25.8153L19.7028 27.8951L22.0411 30.2334C21.3478 30.7915 20.6663 31.4201 20.0025 32.131C19.6088 32.554 19.2387 32.977 18.8921 33.4059L16.9885 31.5024L14.9088 33.5822L17.1765 35.85C15.7195 38.3292 15.0909 40.8262 15.3141 43.3172C15.79 48.6518 20.0142 51.8654 20.1963 51.9947L21.9589 49.6447C21.9236 49.6212 18.5866 47.0479 18.2399 43.0293C18.0989 41.3902 18.4691 39.7158 19.3444 38.012L25.7072 44.3747L27.7869 42.2949L20.9836 35.4975C21.342 35.0451 21.7239 34.5986 22.1469 34.1403C22.799 33.4412 23.4629 32.8419 24.1385 32.3249L31.077 39.2693L33.1568 37.1895L26.7764 30.8091C27.8868 30.3685 29.009 30.1511 30.1487 30.1864C35.0192 30.3509 38.7381 34.8394 38.7734 34.8864L41.0529 33.0358C40.8766 32.8125 36.4879 27.4838 30.2721 27.2547Z" fill="#828282"/>
<path d="M64.1655 11.063C63.5662 5.62853 59.9589 2.83199 59.8297 2.73799C57.1036 0.587708 50.3825 -2.17358 44.4311 2.76149C41.3231 5.34065 40.0012 9.19471 40.6064 13.9007C41.047 17.3023 42.3454 19.9637 42.3983 20.0754L45.0303 18.777C44.9833 18.6889 40.6534 9.71172 46.3052 5.0234C51.8924 0.387955 57.7616 4.85302 58.0201 5.05865C58.1318 5.14678 60.8167 7.27356 61.2456 11.4507C61.6921 15.7454 59.6417 20.61 55.1472 25.9093L57.3856 27.807C62.4499 21.8438 64.7295 16.2096 64.1655 11.063Z" fill="#828282"/>
</svg>
