<svg width="30" height="36" viewBox="0 0 30 36" fill="none" xmlns="http://www.w3.org/2000/svg">
<mask id="path-1-inside-1" fill="white">
<path fill-rule="evenodd" clip-rule="evenodd" d="M7 0.824219C3.13401 0.824219 0 3.95823 0 7.82422V28.3483C0 32.2143 3.13401 35.3483 7 35.3483H23C26.866 35.3483 30 32.2143 30 28.3483V7.82422C30 3.95823 26.866 0.824219 23 0.824219H7ZM15.0315 27.3259C19.4695 27.3259 23.0672 23.2371 23.0672 18.1935C23.0672 13.1498 19.4695 9.06106 15.0315 9.06106C10.5935 9.06106 6.99579 13.1498 6.99579 18.1935C6.99579 23.2371 10.5935 27.3259 15.0315 27.3259Z"/>
</mask>
<path d="M1 7.82422C1 4.51051 3.68629 1.82422 7 1.82422V-0.175781C2.58172 -0.175781 -1 3.40594 -1 7.82422H1ZM1 28.3483V7.82422H-1V28.3483H1ZM7 34.3483C3.68629 34.3483 1 31.662 1 28.3483H-1C-1 32.7665 2.58172 36.3483 7 36.3483V34.3483ZM23 34.3483H7V36.3483H23V34.3483ZM29 28.3483C29 31.662 26.3137 34.3483 23 34.3483V36.3483C27.4183 36.3483 31 32.7665 31 28.3483H29ZM29 7.82422V28.3483H31V7.82422H29ZM23 1.82422C26.3137 1.82422 29 4.51051 29 7.82422H31C31 3.40594 27.4183 -0.175781 23 -0.175781V1.82422ZM7 1.82422H23V-0.175781H7V1.82422ZM22.0672 18.1935C22.0672 22.8089 18.8008 26.3259 15.0315 26.3259V28.3259C20.1382 28.3259 24.0672 23.6654 24.0672 18.1935H22.0672ZM15.0315 10.0611C18.8008 10.0611 22.0672 13.578 22.0672 18.1935H24.0672C24.0672 12.7215 20.1382 8.06106 15.0315 8.06106V10.0611ZM7.99579 18.1935C7.99579 13.578 11.2622 10.0611 15.0315 10.0611V8.06106C9.92484 8.06106 5.99579 12.7215 5.99579 18.1935H7.99579ZM15.0315 26.3259C11.2622 26.3259 7.99579 22.8089 7.99579 18.1935H5.99579C5.99579 23.6654 9.92484 28.3259 15.0315 28.3259V26.3259Z" fill="white" mask="url(#path-1-inside-1)"/>
<path d="M25.4033 8.23705C25.4033 9.30857 24.6519 10.0649 23.855 10.0649C23.0581 10.0649 22.3067 9.30857 22.3067 8.23705C22.3067 7.16552 23.0581 6.40918 23.855 6.40918C24.6519 6.40918 25.4033 7.16552 25.4033 8.23705Z" stroke="white"/>
</svg>
