<?xml version="1.0" encoding="utf-8"?>
<!-- Generator: Adobe Illustrator 23.0.1, SVG Export Plug-In . SVG Version: 6.00 Build 0)  -->
<svg version="1.1" id="Слой_1" xmlns="http://www.w3.org/2000/svg" xmlns:xlink="http://www.w3.org/1999/xlink" x="0px" y="0px"
	 viewBox="0 0 820 136" style="enable-background:new 0 0 820 136;" xml:space="preserve">
<style type="text/css">
	.st0{fill:#FFFFFF;}
	.st1{fill:#C4C4C4;filter:url(#Adobe_OpacityMaskFilter);}
	.st2{mask:url(#mask0_1_);}
	.st3{fill:url(#SVGID_1_);}
	.st4{fill:#0F1752;}
</style>
<path class="st0" d="M143.1,70.4H158V76h-22V41.9h7V70.4z M174.8,64.1h-13.2v-5.5h13.2V64.1z M207.5,64.6c-0.3,3.7-1.6,6.6-4.1,8.7
	c-2.4,2.1-5.7,3.2-9.7,3.2c-4.4,0-7.8-1.5-10.3-4.4c-2.5-3-3.8-7-3.8-12.1v-2.1c0-3.3,0.6-6.2,1.7-8.7s2.8-4.4,4.9-5.7
	c2.2-1.3,4.7-2,7.5-2c3.9,0,7.1,1.1,9.5,3.2c2.4,2.1,3.8,5.1,4.2,8.9h-7c-0.2-2.2-0.8-3.8-1.9-4.8c-1-1-2.6-1.5-4.8-1.5
	c-2.3,0-4.1,0.8-5.3,2.5c-1.2,1.7-1.8,4.3-1.8,7.8v2.6c0,3.7,0.6,6.4,1.7,8.1c1.1,1.7,2.9,2.6,5.3,2.6c2.2,0,3.8-0.5,4.9-1.5
	c1.1-1,1.7-2.5,1.9-4.6H207.5z M231.3,69H219l-2.3,7h-7.5l12.7-34.1h6.5L241.2,76h-7.5L231.3,69z M220.9,63.3h8.5l-4.3-12.8
	L220.9,63.3z M257,63.5h-5.6V76h-7V41.9h12.7c4,0,7.1,0.9,9.3,2.7c2.2,1.8,3.3,4.3,3.3,7.6c0,2.3-0.5,4.3-1.5,5.8
	c-1,1.5-2.5,2.8-4.6,3.7l7.4,13.9V76h-7.5L257,63.5z M251.4,57.8h5.7c1.8,0,3.1-0.4,4.1-1.3c1-0.9,1.5-2.1,1.5-3.7
	c0-1.6-0.5-2.9-1.4-3.8c-0.9-0.9-2.3-1.4-4.2-1.4h-5.6V57.8z M302.8,76h-7l-13.7-22.5V76h-7V41.9h7l13.7,22.5V41.9h7V76z M316.4,76
	h-7V41.9h7V76z M347.9,47.6h-10.5V76h-7V47.6h-10.3v-5.7h27.8V47.6z M359.4,76h-7V41.9h7V76z M393.7,76h-7L373,53.5V76h-7V41.9h7
	l13.7,22.5V41.9h7V76z M420.4,61.2h-13.5v9.1h15.8V76h-22.9V41.9h22.8v5.7h-15.8v8.1h13.5V61.2z"/>
<path class="st0" d="M143.4,98.5h-7.2v7.5H134V88.9h10.6v1.9h-8.3v5.8h7.2V98.5z M149.7,106h-2.2V88.9h2.2V106z M160,99.1h-4v6.9
	h-2.3V88.9h5.6c1.9,0,3.4,0.4,4.4,1.3c1,0.9,1.6,2.1,1.6,3.8c0,1.1-0.3,2-0.9,2.8c-0.6,0.8-1.4,1.4-2.4,1.8l4,7.2v0.1h-2.4L160,99.1
	z M156,97.3h3.5c1.1,0,2-0.3,2.7-0.9c0.7-0.6,1-1.4,1-2.3c0-1.1-0.3-1.9-0.9-2.4c-0.6-0.6-1.5-0.8-2.7-0.9H156V97.3z M178.2,98.1
	h-7.4v6h8.6v1.8h-10.8V88.9h10.7v1.9h-8.5v5.5h7.4V98.1z"/>
<defs>
	<filter id="Adobe_OpacityMaskFilter" filterUnits="userSpaceOnUse" x="4" y="10" width="812" height="120">
		<feColorMatrix  type="matrix" values="1 0 0 0 0  0 1 0 0 0  0 0 1 0 0  0 0 0 1 0"/>
	</filter>
</defs>
<mask maskUnits="userSpaceOnUse" x="4" y="10" width="812" height="120" id="mask0_1_">
	<path class="st1" d="M117.5,49.5l-7-49.5L820,8v124H73c6-4,19-11,24.5-33.5c4.4-18-4.8-35.5-10-42l3.5-6l1,3L117.5,49.5z"/>
</mask>
<g class="st2">
	
		<linearGradient id="SVGID_1_" gradientUnits="userSpaceOnUse" x1="816" y1="67.1969" x2="4" y2="67.1969" gradientTransform="matrix(1 0 0 -1 0 137.1969)">
		<stop  offset="0" style="stop-color:#0860A8"/>
		<stop  offset="1" style="stop-color:#100A42"/>
	</linearGradient>
	<rect x="4" y="10" class="st3" width="812" height="120"/>
</g>
<path class="st4" d="M39.8,134.4c-7.7-1.4-15-4.6-21-9.4C-0.3,110.2-5.6,83.8,6.5,63.6C15,49.3,30.8,40.5,47.6,40.4
	c6.3,0,12.5,1.2,18.4,3.5l8.4-11.7l-6.9,1.3L63.2,12l44.9-7l6.6,42l-21.2,3.8L92.3,45L84,56.7c8.9,10.1,13,21.9,12.1,35
	c-0.8,11.7-5.5,21.9-14.2,30.2c-8.8,8.6-20.7,13.3-33.3,13.4C45.6,135.2,42.7,134.9,39.8,134.4z M56,44.4c-2.7-0.5-5.5-0.8-8.4-0.8
	c-15.7,0-30.5,8.3-38.5,21.6c-11.3,18.9-6.4,43.6,11.5,57.4c7.8,6.1,17.9,9.5,27.9,9.5c11.8,0,22.8-4.4,31.1-12.4
	c8.1-7.8,12.5-17.3,13.3-28.2c0.9-12.7-3.2-24-12.1-33.6l-0.9-0.9l14-19.6l1.9,9.9l15.1-2.8l-5.6-35.9l-38.6,6.1L70,30.1L81.4,28
	L67.2,47.9L66,47.4C62.7,46,59.4,45,56,44.4z"/>
<path class="st4" d="M40.7,129.1c-6.8-1.3-13.3-4.1-18.6-8.3C5.1,107.7,0.5,84.3,11.2,66.4c7.5-12.6,21.5-20.4,36.5-20.5
	c6,0,11.8,1.2,17.4,3.5l2.9,1.3l18.7-26.1l-14.9,2.7l-2.1-10.8l33.8-5.3l4.9,31.4l-10.6,1.9l-2.6-13L77,57.1l2.1,2.3
	c8.4,9.2,12.3,20,11.5,32c-0.7,10.3-4.9,19.4-12.6,26.8c-7.8,7.6-18.3,11.8-29.5,11.8C45.9,129.8,43.3,129.6,40.7,129.1z M55.1,49.7
	c-2.4-0.4-4.9-0.7-7.3-0.6c-13.8,0-26.8,7.3-33.8,19C4,84.6,8.3,106.3,24,118.5c6.8,5.3,15.7,8.3,24.5,8.3
	c10.3,0,20.1-3.9,27.3-10.9c7.1-6.8,11-15.2,11.7-24.8C88.2,80,84.6,70,76.8,61.4l-3.8-4.1l23.9-33.4l3.4,17.1l4.6-0.8l-3.9-25.4
	L73.4,19l0.9,4.7l19.4-3.5L69.1,54.6l-5.2-2.2C61,51.1,58,50.2,55.1,49.7z"/>
</svg>
