<?xml version="1.0" encoding="utf-8"?>
<!-- Generator: Adobe Illustrator 23.0.1, SVG Export Plug-In . SVG Version: 6.00 Build 0)  -->
<svg version="1.1" id="Слой_1" xmlns="http://www.w3.org/2000/svg" xmlns:xlink="http://www.w3.org/1999/xlink" x="0px" y="0px"
	 viewBox="0 0 782 122" style="enable-background:new 0 0 782 122;" xml:space="preserve">
<style type="text/css">
	.st0{fill:#2854A1;}
	.st1{fill:url(#SVGID_1_);}
	.st2{fill:url(#SVGID_2_);}
	.st3{fill:url(#SVGID_3_);}
	.st4{fill:#892890;}
	.st5{fill:#E3160C;}
	.st6{fill:#FE120C;}
	.st7{fill:url(#SVGID_4_);}
	.st8{fill:#1E6520;}
	.st9{fill:#FFFFFF;}
	.st10{fill:url(#SVGID_5_);}
	.st11{fill:#040406;}
	.st12{fill:url(#SVGID_6_);}
</style>
<g>
	<g>
		<linearGradient id="SVGID_1_" gradientUnits="userSpaceOnUse" x1="48.3682" y1="74.2853" x2="49.0791" y2="74.2853">
			<stop  offset="0" style="stop-color:#FBF484"/>
			<stop  offset="1" style="stop-color:#FF9110"/>
		</linearGradient>
		<path class="st1" d="M48.37,72.74v3.09c0.24,0,0.46,0,0.71,0C48.81,74.8,48.59,73.77,48.37,72.74z"/>
		<linearGradient id="SVGID_2_" gradientUnits="userSpaceOnUse" x1="45.6678" y1="60.8086" x2="782" y2="60.8086">
			<stop  offset="0" style="stop-color:#892990"/>
			<stop  offset="1" style="stop-color:#C381BA"/>
		</linearGradient>
		<path class="st2" d="M51.13,1.81c2.32,0.04,3,0.73,4.97,2.27c3.51,2.74,3.19,6.92,2.62,11.22c-0.19,1.42-0.79,2.78-0.98,4.19
			c-0.29,2.17-0.38,4.36-0.58,6.54c-0.07,0.74-0.26,1.46-0.54,2.1c-0.67,3.1-3.01,5.77-7.02,5.89c0.74,2.26,1.9,4.26,3.77,5.84
			c1.87,1.59,3.49,3.42,4.04,5.85c0.44,1.96,0.67,4.01,0.69,6.02c0.02,2.05,0.23,4.03,0.65,6.04c0.44,2.13,0.83,4.33,0.78,6.49
			c-0.09,4.57-0.41,9.13-0.79,13.68c-0.17,1.98-0.56,3.97-1.15,5.86c-0.18,0.58-0.4,1.07-0.66,1.5c-0.85,2.44-2.47,4.58-4.85,5.87
			c1.19,1.63,2.58,3.12,3.64,4.83c1.98,3.2,3.03,6.54,2.86,10.05c0,0.06,0.01,0.13,0.02,0.19c0.27,6.03-3.78,10.72-9.09,13.13
			L782,119.81v-118H51.13z"/>
	</g>
	<g>
		<path class="st4" d="M28.89,84.55c0.17,0.07,0.33,0.17,0.51,0.22c4.19,1.03,8.36,2.17,12.58,3.04c1.74,0.36,3.14,0.76,4.18,2.38
			c1.3,2.04,3.08,3.77,4.35,5.83c2.89,4.68,3.82,9.66,1.87,15.02c-0.76,2.09-1.98,3.42-4.1,4.27c-6.38,2.55-13.04,2.96-19.87,3.55
			c-1.71,0.15-3.43,0.18-5.21,0.27c0.31-5.02,1.33-8.6,2.62-13.26c0.15-0.55,0.11-1.25-0.1-1.78c-1.59-4.11-3.25-8.2-4.88-12.3
			c-0.11-0.28-0.17-0.57-0.29-0.97c2.71-1.08,5.34-2.13,7.97-3.18c-0.02-0.07-0.04-0.15-0.07-0.22c-3.08,0.82-6.17,1.64-9.28,2.46
			c-0.03-0.1-0.09-0.24-0.12-0.4c-0.4-2.27-0.83-4.53-1.18-6.8c-0.12-0.77-0.44-1.14-1.22-1.24c-1.2-0.16-2.38-0.42-3.63-0.65
			c1.46-2.02,3.99-3.21,3.93-6.05c3.15,0.42,6.2,0.82,9.26,1.23c0.01-0.08,0.03-0.16,0.04-0.24c-0.26-0.07-0.53-0.15-0.79-0.21
			c-2.64-0.63-5.28-1.25-7.9-1.92c-0.3-0.08-0.72-0.39-0.76-0.65c-0.47-2.86-1.47-5.49-2.81-8.08c-1.55-2.99-1.14-5.96,1.14-8.52
			c0.83-0.94,1.76-1.81,2.75-2.59c2.38-1.87,4.84-3.64,7.22-5.51c2.23-1.75,4.39-3.59,6.62-5.34c2.07-1.63,2.42-4.98,0.63-6.8
			c-0.73,0.43-1.45,0.88-2.19,1.29c-1.08,0.59-2.23,0.86-3.47,0.63c-0.8-0.15-1.36-0.51-1.63-1.36c-0.12-0.37-0.58-0.66-0.93-0.93
			c-0.28-0.21-0.75-0.28-0.89-0.54c-0.13-0.24,0.08-0.65,0.14-0.99c-1.44-0.23-1.47-0.28-1.28-1.71c0.08-0.6-0.07-1.06-0.71-1.26
			c-1.96-0.62-1.96-0.62-1.34-2.53c0.08-0.24,0.15-0.48,0.24-0.72c0.4-1.1,0.25-2.11-0.49-3.02c-1.01-1.25-1.41-2.72-1.6-4.28
			c-0.09-0.78-0.29-1.54-0.47-2.3c-0.38-1.57-0.54-3.17,0.15-4.65c1.92-4.14,4.95-7.03,9.58-7.93c1.89-0.37,3.76-0.23,5.65,0.36
			c0.16-1.18,0.82-1.58,1.93-1.5c0.32,0.02,0.75-0.25,0.99-0.52C37.06,3,38.25,2.08,39.8,1.79c3.46-0.64,6.77-0.24,9.61,1.98
			c3.54,2.76,4.69,6.53,4.11,10.87c-0.19,1.43-0.79,2.8-0.99,4.23c-0.29,2.18-0.39,4.39-0.58,6.59c-0.16,1.76-1.02,3.43-2.07,4.07
			c0.39-3.47,0.38-3.73-0.21-4.7c-0.09,2.81-0.64,5.34-3.22,6.94c0.36-1.63,0.7-3.21,1.04-4.79c-0.28,0.02-0.36,0.09-0.38,0.18
			c-0.59,1.86-1.42,3.56-2.88,4.92c-0.16,0.15-0.17,0.57-0.1,0.82c0.72,2.54,1.95,4.77,4,6.51c1.88,1.6,3.52,3.45,4.08,5.9
			c0.45,1.98,0.68,4.04,0.7,6.07c0.02,2.07,0.23,4.06,0.65,6.09c0.44,2.15,0.83,4.36,0.79,6.54c-0.1,4.6-0.41,9.21-0.8,13.8
			c-0.17,1.99-0.56,4-1.16,5.91c-0.88,2.8-2.46,3.77-5.42,3.71c-4.05-0.08-8.04-0.73-11.99-1.59c-2.02-0.44-4.04-0.92-6.06-1.38
			C28.91,84.48,28.9,84.51,28.89,84.55z M40.96,59.96c-0.48,3.34-0.71,6.7-0.4,10.08c0.07,0.72-0.14,1.48-0.31,2.19
			c-0.29,1.25-0.65,2.49-1.01,3.83c1.45,0,2.75,0,4.33,0c-1.55-6.03-2.51-12.03-2.02-18.17c-0.08-0.01-0.16-0.03-0.24-0.04
			C41.2,58.55,41.07,59.25,40.96,59.96z M42.29,9.99c0.05-0.7,0.02-1.48-0.24-2.11c-0.56-1.38-2.18-1.65-3.53-0.75
			c-0.05,0.58-0.1,1.12-0.13,1.48c1.22,1.68,2.41,3.31,3.45,4.74C41.96,12.47,42.2,11.23,42.29,9.99z M43.64,30.94
			c0.64-2.25,0.86-4.28-0.33-6.36C42.35,26.62,42.41,27.72,43.64,30.94z"/>
		<path class="st4" d="M0,72.33c0.4-0.76,0.68-1.61,1.22-2.25c0.99-1.18,2.13-2.24,3.2-3.35c0.98-1.02,2.17-1.37,3.54-1.03
			c1.53,0.37,3.06,0.75,4.58,1.16c1.18,0.31,2.04,1.04,2.4,2.21c0.52,1.65,0.97,3.33,1.41,5c0.31,1.19-0.01,2.26-0.84,3.15
			c-1.13,1.19-2.27,2.37-3.44,3.52c-0.89,0.88-1.98,1.2-3.22,0.9c-1.59-0.39-3.18-0.77-4.77-1.19c-1.3-0.35-2.1-1.22-2.47-2.5
			c-0.42-1.45-0.82-2.91-1.22-4.37c-0.1-0.36-0.15-0.74-0.22-1.11C0.12,72.42,0.06,72.38,0,72.33z M5.96,72.98
			c0.42-1.51,1.71-2.19,3.69-1.95c-0.73-0.65-2.01-0.68-3.03-0.06c-1.17,0.71-1.74,2.09-1.42,3.43c0.32,1.3,1.41,2.19,2.99,2.28
			C6.29,75.81,5.55,74.5,5.96,72.98z"/>
	</g>
</g>
</svg>
