<?xml version="1.0" encoding="utf-8"?>
<!-- Generator: Adobe Illustrator 23.0.1, SVG Export Plug-In . SVG Version: 6.00 Build 0)  -->
<svg version="1.1" id="Слой_1" xmlns="http://www.w3.org/2000/svg" xmlns:xlink="http://www.w3.org/1999/xlink" x="0px" y="0px"
	 viewBox="0 0 782 122" style="enable-background:new 0 0 782 122;" xml:space="preserve">
<style type="text/css">
	.st0{fill:#E3160C;}
	.st1{fill:#FE120C;}
	.st2{fill:url(#SVGID_1_);}
	.st3{fill:#1E6520;}
	.st4{fill:#FFFFFF;}
	.st5{fill:url(#SVGID_2_);}
	.st6{fill:#040406;}
	.st7{fill:url(#SVGID_3_);}
</style>
<g>
	<g>
		<g>
			<path class="st0" d="M78.29,42.48c0,0-12.45,6.98-8.02,27.68c0,0-7.9-8.48-5.81-26.78c0.9-7.9-4.42-27.79-13.11-31.85
				c0,0,5.73,20.15-9.88,36.71c-12.34,13.09-5.59,29.29-5.59,29.29s-9.92-4.73-5.49-19.54c4.43-14.82,0.63-21.72,0.63-21.72
				s-2.32,13.3-11.5,24.26c-13.29,12.59-7.7,34.81-7.7,34.81s3.59,17.05,25.74,24.97c0,0-6.96-7.1-3.8-13.6
				c3.17-6.5-0.83-15.63-0.83-15.63l12.64,12.99c0,0-6.96-23.14,9.71-33.49c0,0-4.64,11.77,9.07,22.33
				c13.72,10.56,4.85,27.4,4.85,27.4s23.21,1.02,24.05-33.9c0-16.04-6.76-20.38-11.39-25.78C78.82,57.07,75.76,50.73,78.29,42.48z"
				/>
			<path class="st1" d="M100.81,82.37c-0.06-0.88-0.09-1.77-0.17-2.65l-0.38-2.63c-0.1-0.88-0.32-1.74-0.53-2.6
				c-0.22-0.86-0.39-1.73-0.65-2.58l-0.91-2.51c-0.29-0.84-0.6-1.67-1.01-2.47c-0.77-1.61-1.47-3.25-2.47-4.73
				c-0.94-1.53-1.85-3.02-2.81-4.5l-1.43-2.23c-0.46-0.75-0.86-1.52-1.29-2.28c-0.89-1.51-1.59-3.11-2.31-4.7
				c-0.39-0.79-0.68-1.61-0.99-2.42c-0.3-0.82-0.65-1.62-0.87-2.46l-0.7-2.51c-0.21-0.84-0.36-1.7-0.54-2.55
				c-0.32-1.7-0.5-3.43-0.54-5.15c-0.06-1.72,0.04-3.45,0.3-5.14c0.25-1.68,0.7-3.4,1.39-4.85l1.17-2.44l-2.13,1.71
				c-1.82,1.46-3.49,3.02-5.12,4.65c-1.63,1.62-3.14,3.36-4.53,5.19c-0.35,0.45-0.7,0.91-1.02,1.4c-0.32,0.48-0.66,0.94-0.96,1.44
				c-0.6,0.99-1.18,1.99-1.66,3.05c-0.24,0.46-0.43,0.94-0.61,1.43c-0.01-0.04-0.01-0.09-0.02-0.13c-0.3-1.8-0.64-3.59-1.06-5.36
				c-0.39-1.78-0.92-3.53-1.45-5.28c-0.57-1.74-1.17-3.47-1.89-5.16c-0.32-0.86-0.72-1.69-1.12-2.52c-0.4-0.83-0.76-1.67-1.25-2.46
				l-1.39-2.39l-1.6-2.27c-0.49-0.78-1.19-1.43-1.77-2.14l-0.92-1.04l-1.05-0.93c-0.73-0.58-1.34-1.3-2.16-1.76L54.07,8.2
				C54.03,8.29,54,8.37,53.95,8.46l0.17,0.21c0.77,0.51,1.32,1.26,1.99,1.88l0.95,0.97l0.83,1.08c0.53,0.73,1.18,1.38,1.62,2.17
				l1.44,2.28l1.24,2.39c0.43,0.79,0.75,1.63,1.12,2.45c0.36,0.82,0.73,1.64,1.01,2.49c0.65,1.67,1.18,3.38,1.69,5.1
				c0.47,1.73,0.91,3.46,1.3,5.21c0.4,1.74,0.73,3.51,1.01,5.27c0.28,1.76,0.52,3.55,0.65,5.3l1.77-0.07l0.12-1.55
				c0.04-0.52,0.22-1.03,0.31-1.54c0.08-0.52,0.29-1.02,0.46-1.53c0.17-0.51,0.35-1.01,0.6-1.5c0.43-1,0.96-1.95,1.52-2.9
				c0.27-0.48,0.6-0.93,0.9-1.39c0.29-0.47,0.62-0.92,0.95-1.36c1.3-1.8,2.77-3.5,4.3-5.14c1-1.07,2.06-2.11,3.13-3.11
				c-0.25,0.98-0.41,1.96-0.52,2.96c-0.18,1.77-0.22,3.54-0.08,5.3c0.11,1.76,0.39,3.5,0.72,5.23c0.2,0.86,0.36,1.72,0.58,2.57
				l0.75,2.53c0.59,1.65,1.1,3.34,1.81,4.95c0.68,1.62,1.39,3.24,2.22,4.81c0.4,0.79,0.77,1.6,1.19,2.37l1.31,2.29
				c0.89,1.52,1.74,3.08,2.57,4.59c0.9,1.49,1.51,3.12,2.25,4.68c0.39,0.78,0.67,1.59,0.94,2.41l0.84,2.44
				c0.41,1.67,0.96,3.31,1.22,5.01l0.42,2.54c0.1,0.85,0.14,1.71,0.22,2.57c0.09,0.86,0.09,1.72,0.08,2.57
				c-0.02,0.86,0.05,1.72-0.04,2.58c-0.07,0.86-0.09,1.72-0.19,2.58l-0.36,2.56c-0.33,1.7-0.69,3.39-1.19,5.06
				c-0.49,1.67-1.1,3.3-1.84,4.89l0.15,0.08c0.92-1.52,1.65-3.13,2.27-4.78c0.33-0.82,0.57-1.67,0.86-2.5l0.66-2.56l0.49-2.6
				c0.14-0.87,0.21-1.75,0.32-2.63c0.13-0.88,0.12-1.76,0.15-2.65C100.87,84.14,100.89,83.25,100.81,82.37z"/>
			<path class="st1" d="M42.11,41.15c0.4-0.49,0.82-1.07,1.27-1.7c0.48-0.62,0.91-1.34,1.33-2.13c0.45-0.77,0.9-1.6,1.25-2.5
				c0.4-0.89,0.79-1.81,1.06-2.79c0.34-0.96,0.58-1.96,0.82-2.96c0.25-1,0.36-2.02,0.53-3.01c0.14-1,0.19-1.99,0.25-2.94
				c0.07-1.91,0.02-3.69-0.16-5.2c-0.32-3.03-0.98-4.95-0.98-4.95s0.02,0.5,0.04,1.38c0.04,0.87,0.01,2.13-0.03,3.62
				c-0.02,0.75-0.06,1.55-0.12,2.4c-0.03,0.85-0.17,1.74-0.23,2.67c-0.1,0.92-0.25,1.87-0.39,2.83c-0.19,0.95-0.3,1.94-0.57,2.89
				c-0.21,0.96-0.42,1.93-0.73,2.85c-0.14,0.47-0.27,0.93-0.4,1.39c-0.16,0.45-0.32,0.89-0.48,1.33c-0.3,0.88-0.63,1.71-1,2.49
				c-0.34,0.78-0.66,1.53-1.03,2.18c-0.35,0.67-0.67,1.28-0.95,1.83c-0.33,0.52-0.62,0.98-0.85,1.35c-0.47,0.76-0.73,1.21-0.73,1.21
				s0.37-0.36,0.99-1.02C41.31,42.03,41.68,41.62,42.11,41.15z"/>
			<path class="st1" d="M16.14,53.92c0.76-1.07,1.44-2.17,2.11-3.26c0.7-1.07,1.29-2.18,1.87-3.26c0.62-1.07,1.1-2.17,1.57-3.24
				c0.94-2.14,1.61-4.25,2.16-6.2c1.08-3.92,1.48-7.29,1.64-9.64c0.13-2.35,0-3.7,0-3.7l-0.17,0c0,0-0.12,1.33-0.53,3.63
				c-0.22,1.14-0.46,2.53-0.85,4.11c-0.4,1.57-0.85,3.34-1.46,5.23c-0.58,1.9-1.31,3.93-2.15,6.05c-0.83,2.12-1.72,4.37-2.86,6.61
				c-0.57,1.12-1.11,2.28-1.83,3.36c-0.68,1.11-1.35,2.23-2.19,3.27c-0.82,1.04-1.58,2.15-2.51,3.13c-0.92,1.01-1.83,1.94-2.75,3.02
				c-0.87,1.05-1.84,1.99-2.64,3.11c-0.73,1.17-1.56,2.3-2.18,3.51c-0.55,1.24-1.19,2.43-1.61,3.69c-0.36,1.27-0.87,2.5-1.08,3.77
				c-0.53,2.52-0.75,5.01-0.65,7.36c0.06,2.35,0.38,4.55,0.83,6.54c0.42,2,0.95,3.79,1.54,5.34c0.57,1.55,1.14,2.88,1.68,3.94
				c1.05,2.13,1.84,3.25,1.84,3.25l0.15-0.08c0,0-0.58-1.22-1.36-3.42c-0.38-1.1-0.85-2.44-1.25-4.01C3.04,94.5,2.6,92.73,2.3,90.78
				c-0.19-0.97-0.27-1.99-0.36-3.05c-0.14-1.05-0.13-2.15-0.16-3.27c-0.02-2.24,0.17-4.6,0.61-7C2.55,76.24,3,75.07,3.3,73.84
				c0.35-1.21,0.95-2.35,1.41-3.56c0.53-1.17,1.24-2.25,1.86-3.41c0.66-1.14,1.57-2.19,2.35-3.29c1.6-2.14,3.45-4.21,4.95-6.41
				C14.69,56.12,15.39,55,16.14,53.92z"/>
		</g>
		<g>
			<linearGradient id="SVGID_1_" gradientUnits="userSpaceOnUse" x1="46.5364" y1="60.1062" x2="782" y2="60.1062">
				<stop  offset="0" style="stop-color:#E4100B"/>
				<stop  offset="1" style="stop-color:#FC5B3F"/>
			</linearGradient>
			<path class="st2" d="M46.54,0c0.31,0.26,2.73,10.7,3.07,10.94l1.51-7.54l6.63,6.32c0.65,0.72,1.43,1.36,1.98,2.14l1.78,2.27
				l1.55,2.39c0.55,0.79,0.95,1.63,1.39,2.46c0.44,0.83,0.89,1.66,1.25,2.52c0.8,1.69,1.47,3.42,2.1,5.16
				c0.59,1.75,1.19,3.5,1.62,5.28c0.47,1.78,0.86,3.57,1.19,5.36c0.01,0.04-0.51-2.54-0.5-2.49c0,0,3.66-5.76,9.72-10.35
				c1.97-1.49,4.1-2.94,6.13-4.41l2.54-1.48l-1.3,2.44c-0.77,1.45-1.28,3.17-1.55,4.85c-0.28,1.69-0.4,3.42-0.33,5.14
				c0.05,1.72,0.25,3.45,0.61,5.15c0.2,0.85,0.36,1.7,0.6,2.55l0.78,2.51c0.25,0.84,0.64,1.65,0.97,2.46
				c0.34,0.82,0.67,1.64,1.1,2.42c0.8,1.59,1.58,3.19,2.58,4.7c0.48,0.76,0.93,1.53,1.44,2.28l1.59,2.23
				c1.07,1.48,2.09,2.97,3.14,4.5c1.12,1.48,1.9,3.12,2.76,4.73c0.46,0.79,0.8,1.63,1.12,2.47l1.01,2.51
				c0.3,0.85,0.48,1.72,0.73,2.58c0.23,0.86,0.49,1.72,0.59,2.6l0.43,2.63c0.09,0.88,0.13,1.77,0.19,2.65
				c0.09,0.88,0.07,1.77,0.03,2.65c-0.03,0.88-0.02,1.77-0.17,2.65c-0.12,0.88-0.2,1.76-0.36,2.63l-0.55,2.6l-0.74,2.56
				c-0.14,0.35-0.26,0.7-0.39,1.06c-0.34,1.3-0.83,2.48-1.51,3.46c-0.46,0.92-0.96,1.82-1.54,2.69c-1.77,5.11-8.15,15.63-11.33,19.4
				l693.59,0.55L782,0.01L46.54,0z"/>
		</g>
	</g>
</g>
</svg>
