<?xml version="1.0" encoding="utf-8"?>
<!-- Generator: Adobe Illustrator 23.0.1, SVG Export Plug-In . SVG Version: 6.00 Build 0)  -->
<svg version="1.1" id="Слой_1" xmlns="http://www.w3.org/2000/svg" xmlns:xlink="http://www.w3.org/1999/xlink" x="0px" y="0px"
	 viewBox="0 0 782 122" style="enable-background:new 0 0 782 122;" xml:space="preserve">
<style type="text/css">
	.st0{fill:#2854A1;}
	.st1{fill:url(#SVGID_1_);}
	.st2{fill:#E3160C;}
	.st3{fill:#FE120C;}
	.st4{fill:url(#SVGID_2_);}
	.st5{fill:#1E6520;}
	.st6{fill:#FFFFFF;}
	.st7{fill:url(#SVGID_3_);}
	.st8{fill:#040406;}
	.st9{fill:url(#SVGID_4_);}
</style>
<g>
	<path class="st0" d="M1.9,70.3c0.25,0.17,0.58,0.45,0.61,0.7c0.51,5.06,4.09,7.58,7.96,10.05c3.88,2.47,7.54,5.31,11.26,8.02
		c0.36,0.26,0.7,0.73,0.77,1.16c0.44,2.64,2.42,4,4.35,5.43c0.59,0.44,1.18,0.86,1.77,1.29c-0.12,0.17-0.24,0.35-0.36,0.52
		c-0.95-0.64-1.9-1.28-3.28-2.2c-2.22,9.52-7.67,17.71-10.12,27h50.85c-0.23-5.97-1.49-12.24-4-21.03c-0.85,0.56-1.68,1.09-2.5,1.63
		c0.22-1.12,0.87-1.86,1.39-2.68c0.4-0.63,1.05-1.48,0.89-2.04c-0.73-2.6-1.69-5.13-2.59-7.72c-0.93,0.15-1.67,0.28-2.73,0.45
		c0.87-0.7,1.81-1.08,1.96-1.66c0.47-1.74,0.94-3.58,0.84-5.35c-0.17-2.96-0.9-5.88-1.17-8.84c-0.2-2.24-0.04-4.51-0.04-6.77
		c0.27,0,0.53,0,0.8,0c0.08,0.65,0.16,1.31,0.27,2.2C62.71,68,63.2,64,64.34,60.28c0.02,4.08,2.44,7.02,4.37,10.21
		c1.12,1.84,1.65,4.21,4.99,3.14c-3.2,0.52-3,2.58-2.87,4.63c0.14,2.31,0.15,4.63,0.39,6.92c0.23,2.11,0.7,4.2,1.16,6.87
		c0.6-1,0.79-1.32,1.28-2.13c-0.15,2.27-0.15,3.95-0.4,5.6c-0.25,1.7-0.18,4.07-1.23,4.9c-3.32,2.61-2.47,6.69-4.49,9.8
		c2,0.55,3.16,0.35,3.67-1.69c0.18-0.71,1.22-1.21,1.86-1.81c0.22,0.18,0.44,0.37,0.66,0.55c-0.18,1.39-0.36,2.78-0.54,4.2
		c-1.27-0.25-2.03-0.4-3.38-0.67c0.67,1.05,0.97,1.53,1.13,1.78c-0.85,0.73-1.58,1.36-2.32,1.99c0.15,0.18,0.29,0.37,0.44,0.55
		c0.76,0,1.52,0,2.24,0c0.24,0.66,0.44,1.23,0.91,2.52c0.85-1.46,1.39-2.39,1.94-3.33c3.24-0.13,6.55-4.54,5.38-7.59
		c-1.38-3.59-1.29-7.15-0.07-10.59c2.68-7.59,2.68-15.36,2.15-23.22c-0.01-0.16-0.05-0.32-0.09-0.47c-1.42-4.87-2.8-9.76-4.3-14.6
		c-0.24-0.79-1.01-1.41-1.78-2.42c0.14-0.56,0.37-1.57,0.65-2.56c2.12-7.66-2.78-14.18-10.65-14.18c-0.62,0-1.38,0.1-1.84-0.21
		c-3-2.04-5.96-4.17-8.88-6.32c-0.37-0.27-0.72-0.89-0.71-1.33c0.05-2.48,0.12-4.96,0.39-7.43c0.17-1.55,0.23-3.56,1.19-4.48
		c2.01-1.92,2.1-4.57,1.46-6.25c-0.55-1.45-0.7-2.73-0.67-4.08c0.08-4.43-0.88-6.28-5.06-7.99c-1.6-0.66-3.68-1.15-5.24-0.68
		c-2.27,0.67-5.34,1.8-6.13,3.59C38.52,6.8,38.2,10.69,38,14.36c-0.1,1.9,1.15,3.84,1.85,5.73c0.85,2.29,0.2,5.14,0.2,8.24
		c-3.79,1.69-7.69,3.51-11.67,5.17c-1.04,0.43-2.32,0.57-3.45,0.48c-4.01-0.33-7.67,0.47-9.84,4.03c-1.5,2.46-2.22,5.41-3.35,8.3
		c-0.06,0.02-0.79,0.03-1.16,0.41c-4.11,4.23-8.23,8.48-7.2,15.24c-0.14-0.5-0.29-1-0.54-1.89c-0.75,1.77-1.18,3.22-1.93,4.5
		C-0.42,66.81-0.46,68.72,1.9,70.3z M18.23,62.46c1.61-1.11,2.67-3.02,3.89-4.48c-0.89,5.16,1.11,9.65,4.2,14.41
		c0.76-1.11,1.14-1.66,1.58-2.3c0.39,6,0.77,11.83,1.15,17.65c-0.21,0.14-0.42,0.28-0.64,0.42c-3.08-3.71-6.58-7.17-9.13-11.22
		c-2.59-4.1-4.24-8.78-6.09-12.76C14.62,63.72,16.71,63.51,18.23,62.46z"/>
	<linearGradient id="SVGID_1_" gradientUnits="userSpaceOnUse" x1="56.6777" y1="61.0113" x2="782" y2="61.0113">
		<stop  offset="0" style="stop-color:#2955A1"/>
		<stop  offset="1" style="stop-color:#64C0D8"/>
	</linearGradient>
	<path class="st1" d="M74.67,115.88c1.16-0.49,2.52-1.13,3.72-1.83c2.89-0.88,5-5.7,3.82-8.75c-1.38-3.59-0.22-6.41,1-9.85
		c2.68-7.59,2.06-15.53,1.53-23.38c-0.01-0.16-0.05-0.32-0.09-0.47c-1.42-4.87-3.1-9.84-4.6-14.69c-0.24-0.79-1.01-1.41-1.78-2.42
		c0.14-0.56,0.37-1.57,0.65-2.56c2.12-7.66-3.45-14.46-11.33-14.46c-0.62,0-1.38,0.1-1.83-0.21c-3-2.04-5.45-4.25-8.38-6.4
		c-0.37-0.27-0.72-0.89-0.71-1.33c0.05-2.48,0.12-4.29,0.39-6.75c0.17-1.55,1.32-3.62,2.28-4.54c2.01-1.92,2.1-4.57,1.46-6.25
		c-0.55-1.45-0.7-2.73-0.67-4.08c0.04-2.46-0.28-6.32-3.11-7.9H782v122H73.56h-0.75h-4.72c0.39-3.67-4.19-22.81-4.19-22.81h-1.08
		l1.08-1.76l-2.45-8.81l-1.37-0.2c1.82-1.58,0.97-8.77,0.52-10.31c-0.41-1.44-0.13-6.92-0.13-6.92l-0.5,0.36
		c4.2-2.36,4.05-5.77,4.05-5.77c1.27,4.5,5.41,8.7,5.41,8.7l-0.08,1.18c-0.98,4.9,1.78,19.15,1.78,19.15l1.16-0.99l-0.75,5.1
		c0,0-3.16,2.14-3.36,5.32c-0.2,3.18-1.27,6.33-1.27,6.33c1.02,2.29,2.36,2.18,2.36,2.18l-1.62,1.65l1.66,1.34
		c0.75-0.22,0.01,0.11,0.77-0.07c0.52,0.48,2.07,4.84,2.07,4.84S74.21,116.29,74.67,115.88L74.67,115.88z"/>
</g>
</svg>
