<svg width="17" height="17" viewBox="0 0 17 17" fill="none" xmlns="http://www.w3.org/2000/svg">
<path d="M10.8052 11.7674L14.4526 15.4327C14.3289 15.7906 12.3013 16.5681 9.85323 15.3093C7.4052 14.0505 4.80881 12.113 2.34841 8.42298C0.3801 5.47099 0.992519 3.25206 1.54477 2.5116L5.15499 6.12754C5.15499 6.12754 4.68567 6.55948 5.30336 7.44804C5.72373 8.05275 6.32955 8.74385 7.25683 9.79285C7.99866 10.632 9.01661 11.3766 9.43286 11.644C10.0065 12.1377 10.5868 11.932 10.8052 11.7674Z" stroke="white"/>
<path d="M14.7864 15.1489L11.0896 11.4342C11.3369 11.1874 11.9007 10.632 12.1776 10.3852C12.4546 10.1384 12.7546 10.2824 12.87 10.3852C13.7767 11.2943 15.6469 13.1718 15.8744 13.4088C16.1019 13.6457 15.9692 13.9271 15.8744 14.0382L14.7864 15.1489Z" stroke="white"/>
<path d="M5.47644 5.84369L1.82913 2.21541L2.90478 1.14173C3.16194 0.885039 3.47351 1.03478 3.59715 1.14173L6.53973 4.07892C6.80679 4.34548 6.651 4.65895 6.53973 4.78236L5.47644 5.84369Z" stroke="white"/>
</svg>
