<svg width="820" height="136" viewBox="0 0 820 136" fill="none" xmlns="http://www.w3.org/2000/svg">
<mask id="mask0" mask-type="alpha" maskUnits="userSpaceOnUse" x="73" y="0" width="747" height="132">
<path d="M117.5 49.5L110.5 0L820 8V132H73C79 128 92 121 97.5 98.5C101.9 80.5 92.6667 63 87.5 56.5L91 50.5L92 53.5L117.5 49.5Z" fill="#C4C4C4"/>
</mask>
<g mask="url(#mask0)">
<rect x="4" y="10" width="812" height="120" fill="url(#paint0_linear)"/>
</g>
<path d="M40.2194 134.404C32.4596 132.995 25.0927 129.791 18.9537 125.032C-0.347547 110.222 -5.70081 83.759 6.57732 63.5594C15.172 49.3323 31.1336 40.495 48.1756 40.4464C54.5602 40.4464 60.8466 41.6118 66.7893 43.991L75.2366 32.3374L68.2626 33.5999L63.9407 11.9922L109.37 5L116 47.0016L94.5378 50.8375L93.3591 45.0107L84.9118 56.6643C93.9485 66.7641 98.0739 78.5634 97.1408 91.6737C96.355 103.376 91.542 113.524 82.7999 121.876C73.8615 130.471 61.878 135.181 49.1088 135.229C46.162 135.229 43.1661 134.938 40.2194 134.404ZM56.623 44.3795C53.8727 43.8454 51.0241 43.6026 48.1756 43.6026C32.2632 43.6511 17.333 51.9058 9.27851 65.2103C-2.16471 84.0989 2.84477 108.766 20.8691 122.653C28.7762 128.722 38.9425 132.121 49.1088 132.121C61.0431 132.121 72.1916 127.703 80.5899 119.691C88.7425 111.873 93.2609 102.405 93.9976 91.4795C94.8816 78.8062 90.7562 67.4925 81.7195 57.8297L80.8354 56.9071L95.029 37.3388L96.9935 47.2443L112.317 44.4766L106.669 8.54464L67.6733 14.6142L70.7674 30.0553L82.3579 27.9673L67.9188 47.8756L66.7401 47.39C63.4496 45.9819 60.0608 44.9622 56.623 44.3795Z" fill="#165C07"/>
<path d="M41.1525 129.112C34.2768 127.85 27.7448 125.034 22.3424 120.858C5.20218 107.699 0.487375 84.2946 11.3412 66.3772C18.9537 53.7525 33.0981 45.9348 48.2247 45.8863C54.2656 45.8863 60.2082 47.0516 65.807 49.4309L68.7538 50.742L87.6621 24.667L72.6337 27.3376L70.4727 16.5095L104.704 11.2168L109.664 42.633L98.9088 44.5753L96.3059 31.6106L77.8396 57.0543L80.0005 59.3365C88.5461 68.5137 92.4751 79.2933 91.6402 91.2868C90.9526 101.629 86.6798 110.661 78.9201 118.042C71.0129 125.616 60.4046 129.841 49.1088 129.841C46.4567 129.841 43.8046 129.598 41.1525 129.112ZM55.6898 49.6737C53.2342 49.2367 50.7295 48.9939 48.2738 49.0425C34.2768 49.0425 21.1637 56.326 14.0915 68.0281C4.07259 84.586 8.4436 106.291 24.3069 118.479C31.2318 123.82 40.2194 126.782 49.0596 126.782C59.5206 126.782 69.3431 122.897 76.6609 115.856C83.8313 109.01 87.8094 100.658 88.4479 91.0926C89.2337 79.9731 85.5502 69.9704 77.6431 61.4244L73.7632 57.2971L97.9757 23.8901L101.364 40.9821L106.03 40.1566L102.101 14.7129L74.2544 19.0344L75.1875 23.7444L94.8325 20.2483L69.9325 54.5779L64.6283 52.3443C61.6816 51.0819 58.6857 50.2078 55.6898 49.6737Z" fill="#165C07"/>
<defs>
<linearGradient id="paint0_linear" x1="816" y1="70.0002" x2="4" y2="70.0002" gradientUnits="userSpaceOnUse">
<stop stop-color="#59E924"/>
<stop offset="1" stop-color="#0D4A03"/>
</linearGradient>
</defs>
</svg>
