<?xml version="1.0" encoding="utf-8"?>
<!-- Generator: Adobe Illustrator 24.0.1, SVG Export Plug-In . SVG Version: 6.00 Build 0)  -->
<svg version="1.1" id="Слой_1" xmlns="http://www.w3.org/2000/svg" xmlns:xlink="http://www.w3.org/1999/xlink" x="0px" y="0px"
	 viewBox="0 0 782 122" style="enable-background:new 0 0 782 122;" xml:space="preserve">
<style type="text/css">
	.st0{fill:#E4221F;}
	.st1{fill:url(#SVGID_1_);}
</style>
<path class="st0" d="M1.9,70.3c0.3,0.2,0.6,0.4,0.6,0.7c0.5,5.1,4.1,7.6,8,10.1s7.5,5.3,11.3,8c0.4,0.3,0.7,0.7,0.8,1.2
	c0.4,2.6,2.4,4,4.4,5.4c0.6,0.4,1.2,0.9,1.8,1.3c-0.1,0.2-0.2,0.3-0.4,0.5c-1-0.6-1.9-1.3-3.3-2.2c-2.2,9.5-7.7,17.7-10.1,27h50.8
	c-0.2-6-1.5-12.2-4-21c-0.8,0.6-1.7,1.1-2.5,1.6c0.2-1.1,0.9-1.9,1.4-2.7c0.4-0.6,1-1.5,0.9-2c-0.7-2.6-1.7-5.1-2.6-7.7
	c-0.9,0.2-1.7,0.3-2.7,0.4c0.9-0.7,1.8-1.1,2-1.7c0.5-1.7,0.9-3.6,0.8-5.3c-0.2-3-0.9-5.9-1.2-8.8c-0.2-2.2,0-4.5,0-6.8
	c0.3,0,0.5,0,0.8,0c0.1,0.7,0.2,1.3,0.3,2.2c3.9-2.5,4.4-6.5,5.5-10.2c0,4.1,2.4,7,4.4,10.2c1.1,1.8,1.7,4.2,5,3.1
	c-3.2,0.5-3,2.6-2.9,4.6c0.1,2.3,0.2,4.6,0.4,6.9c0.2,2.1,0.7,4.2,1.2,6.9c0.6-1,0.8-1.3,1.3-2.1c-0.2,2.3-0.2,3.9-0.4,5.6
	c-0.2,1.7-0.2,4.1-1.2,4.9c-3.3,2.6-2.5,6.7-4.5,9.8c2,0.6,3.2,0.3,3.7-1.7c0.2-0.7,1.2-1.2,1.9-1.8c0.2,0.2,0.4,0.4,0.7,0.6
	c-0.2,1.4-0.4,2.8-0.5,4.2c-1.3-0.2-2-0.4-3.4-0.7c0.7,1.1,1,1.5,1.1,1.8c-0.8,0.7-1.6,1.4-2.3,2c0.2,0.2,0.3,0.4,0.4,0.6
	c0.8,0,1.5,0,2.2,0c0.2,0.7,0.4,1.2,0.9,2.5c0.8-1.5,1.4-2.4,1.9-3.3c3.2-0.1,6.6-4.5,5.4-7.6c-1.4-3.6-1.3-7.2-0.1-10.6
	c2.7-7.6,2.7-15.4,2.2-23.2c0-0.2-0.1-0.3-0.1-0.5c-1.4-4.9-2.8-9.8-4.3-14.6c-0.2-0.8-1-1.4-1.8-2.4c0.1-0.6,0.4-1.6,0.7-2.6
	c2.1-7.7-2.8-14.2-10.7-14.2c-0.6,0-1.4,0.1-1.8-0.2c-3-2-6-4.2-8.9-6.3c-0.4-0.3-0.7-0.9-0.7-1.3c0-2.5,0.1-5,0.4-7.4
	c0.2-1.5,0.2-3.6,1.2-4.5c2-1.9,2.1-4.6,1.5-6.2c-0.5-1.4-0.7-2.7-0.7-4.1c0.1-4.4-0.9-6.3-5.1-8C50,0,47.9-0.4,46.4,0
	c-2.3,0.7-5.3,1.8-6.1,3.6c-1.4,3.3-1.8,7.2-2,10.9c-0.1,1.9,1.2,3.8,1.8,5.7c0.8,2.3,0.2,5.1,0.2,8.2c-3.8,1.7-7.7,3.5-11.7,5.2
	c-1,0.4-2.3,0.6-3.5,0.5c-4-0.3-7.7,0.5-9.8,4c-1.5,2.5-2.2,5.4-3.4,8.3c-0.1,0-0.8,0-1.2,0.4C6.5,50.9,2.3,55.2,3.4,62
	c-0.1-0.5-0.3-1-0.5-1.9c-0.8,1.8-1.2,3.2-1.9,4.5C-0.4,66.8-0.5,68.7,1.9,70.3z M18.2,62.5c1.6-1.1,2.7-3,3.9-4.5
	c-0.9,5.2,1.1,9.6,4.2,14.4c0.8-1.1,1.1-1.7,1.6-2.3c0.4,6,0.8,11.8,1.1,17.7c-0.2,0.1-0.4,0.3-0.6,0.4c-3.1-3.7-6.6-7.2-9.1-11.2
	c-2.6-4.1-4.2-8.8-6.1-12.8C14.6,63.7,16.7,63.5,18.2,62.5z"/>
<linearGradient id="SVGID_1_" gradientUnits="userSpaceOnUse" x1="56.7" y1="1017" x2="782.1" y2="1017" gradientTransform="matrix(1 0 0 1 0 -956)">
	<stop  offset="0" style="stop-color:#E4221F"/>
	<stop  offset="1" style="stop-color:#630C00"/>
</linearGradient>
<path class="st1" d="M74.7,115.9c1.2-0.5,2.5-1.1,3.7-1.8c2.9-0.9,5-5.7,3.8-8.8c-1.4-3.6-0.2-6.4,1-9.8c2.7-7.6,2.1-15.5,1.5-23.4
	c0-0.2-0.1-0.3-0.1-0.5c-1.4-4.9-3.1-9.8-4.6-14.7c-0.2-0.8-1-1.4-1.8-2.4c0.1-0.6,0.4-1.6,0.7-2.6c2.1-7.7-3.4-14.5-11.3-14.5
	c-0.6,0-1.4,0.1-1.8-0.2c-3-2-5.5-4.2-8.4-6.4c-0.4-0.3-0.7-0.9-0.7-1.3c0-2.5,0.1-4.3,0.4-6.8c0.2-1.5,1.3-3.6,2.3-4.5
	c2-1.9,2.1-4.6,1.5-6.2c-0.5-1.4-0.7-2.7-0.7-4.1c0-2.5-0.3-6.3-3.1-7.9h725v122H73.6h-0.8h-4.7c0.4-3.7-4.2-22.8-4.2-22.8h-1.1
	l1.1-1.8l-2.5-8.8L60,88.4c1.8-1.6,1-8.8,0.5-10.3c-0.4-1.4-0.1-6.9-0.1-6.9L60,71.6c4.2-2.4,4-5.8,4-5.8c1.3,4.5,5.4,8.7,5.4,8.7
	l-0.1,1.2c-1,4.9,1.8,19.2,1.8,19.2l1.2-1L71.5,99c0,0-3.2,2.1-3.4,5.3s-1.3,6.3-1.3,6.3c1,2.3,2.4,2.2,2.4,2.2l-1.6,1.7l1.7,1.3
	c0.8-0.2,0,0.1,0.8-0.1c0.5,0.5,2.1,4.8,2.1,4.8S74.2,116.3,74.7,115.9L74.7,115.9z"/>
</svg>
